<?xml version="1.0" encoding="UTF-8"?>
<!DOCTYPE svg PUBLIC "-//W3C//DTD SVG 1.1//EN" "http://www.w3.org/Graphics/SVG/1.1/DTD/svg11.dtd">
<svg xmlns="http://www.w3.org/2000/svg" version="1.1" width="450px" height="450px" style="shape-rendering:geometricPrecision; text-rendering:geometricPrecision; image-rendering:optimizeQuality; fill-rule:evenodd; clip-rule:evenodd" xmlns:xlink="http://www.w3.org/1999/xlink">
<g><path style="opacity:0.008" fill="#ea7841" d="M 61.5,45.5 C 60.475,45.1034 60.3083,44.4368 61,43.5C 61.4643,44.0944 61.631,44.7611 61.5,45.5 Z"/></g>
<g><path style="opacity:0.016" fill="#e67d4f" d="M 68.5,46.5 C 68.369,45.7611 68.5357,45.0944 69,44.5C 69.6917,45.4368 69.525,46.1034 68.5,46.5 Z"/></g>
<g><path style="opacity:0.012" fill="#f07345" d="M 61.5,46.5 C 61.631,47.2389 61.4643,47.9056 61,48.5C 60.3083,47.5632 60.475,46.8966 61.5,46.5 Z"/></g>
<g><path style="opacity:0.004" fill="#e47a4f" d="M 62.5,51.5 C 61.475,51.1034 61.3083,50.4368 62,49.5C 62.4643,50.0944 62.631,50.7611 62.5,51.5 Z"/></g>
<g><path style="opacity:0.013" fill="#e5eaf8" d="M 211.5,51.5 C 220.324,50.3427 229.324,50.176 238.5,51C 229.506,51.4998 220.506,51.6664 211.5,51.5 Z"/></g>
<g><path style="opacity:0.008" fill="#e27c47" d="M 23.5,51.5 C 24.8333,52.1667 24.8333,52.1667 23.5,51.5 Z"/></g>
<g><path style="opacity:0.013" fill="#e2e7f1" d="M 201.5,52.5 C 203.966,51.3659 206.633,51.1993 209.5,52C 206.854,52.4974 204.187,52.6641 201.5,52.5 Z"/></g>
<g><path style="opacity:0.006" fill="#e0e8f2" d="M 239.5,52.5 C 241.966,51.3659 244.633,51.1993 247.5,52C 244.854,52.4974 242.187,52.6641 239.5,52.5 Z"/></g>
<g><path style="opacity:0.012" fill="#ea7750" d="M 62.5,51.5 C 62.8333,51.5 63.1667,51.5 63.5,51.5C 63.1667,54.1667 62.8333,54.1667 62.5,51.5 Z"/></g>
<g><path style="opacity:0.008" fill="#e3e8f3" d="M 195.5,53.5 C 196.946,52.3871 198.613,52.2204 200.5,53C 198.866,53.4935 197.199,53.6602 195.5,53.5 Z"/></g>
<g><path style="opacity:0.009" fill="#e1e8f3" d="M 248.5,53.5 C 250.288,52.3775 252.288,52.2109 254.5,53C 252.527,53.4955 250.527,53.6621 248.5,53.5 Z"/></g>
<g><path style="opacity:0.012" fill="#ef793f" d="M 71.5,54.5 C 71.369,53.7611 71.5357,53.0944 72,52.5C 72.6917,53.4368 72.525,54.1034 71.5,54.5 Z"/></g>
<g><path style="opacity:1" fill="#dfe9f7" d="M 239.5,52.5 C 242.287,53.4767 245.287,53.81 248.5,53.5C 252.267,54.7947 256.267,55.4613 260.5,55.5C 262.905,56.7682 265.572,57.4349 268.5,57.5C 273.617,59.537 278.95,61.2036 284.5,62.5C 285.78,63.9313 287.447,64.5979 289.5,64.5C 297.461,68.4806 305.461,72.4806 313.5,76.5C 316.291,78.7349 319.291,80.7349 322.5,82.5C 336.757,92.7557 349.424,104.756 360.5,118.5C 360.5,118.833 360.5,119.167 360.5,119.5C 359.5,119.5 358.5,119.5 357.5,119.5C 353.354,118.353 349.02,118.186 344.5,119C 343.944,119.383 343.611,119.883 343.5,120.5C 341.629,120.859 340.129,121.859 339,123.5C 336.993,128.019 335.493,132.686 334.5,137.5C 333.622,140.761 332.956,144.094 332.5,147.5C 324.355,149.812 316.022,150.145 307.5,148.5C 299.866,144.687 291.699,143.354 283,144.5C 269.725,143.946 256.558,142.613 243.5,140.5C 240.833,141.167 238.167,141.833 235.5,142.5C 220.854,141.41 206.187,140.743 191.5,140.5C 186.833,140.5 182.167,140.5 177.5,140.5C 175.052,139.527 172.385,139.194 169.5,139.5C 170.663,128.642 168.996,118.309 164.5,108.5C 163.774,105.821 162.941,103.154 162,100.5C 161.329,99.7476 160.496,99.4142 159.5,99.5C 158.833,99.1667 158.167,98.8333 157.5,98.5C 156.581,95.9108 154.914,93.9108 152.5,92.5C 149.973,90.3946 147.64,88.0613 145.5,85.5C 145.5,84.5 145.5,83.5 145.5,82.5C 141.391,82.312 138.058,80.6454 135.5,77.5C 138.709,75.7349 141.709,73.7349 144.5,71.5C 145.492,71.6716 146.158,71.3382 146.5,70.5C 147.492,70.6716 148.158,70.3382 148.5,69.5C 149.492,69.6716 150.158,69.3382 150.5,68.5C 154.787,67.3517 158.787,65.685 162.5,63.5C 164.553,63.5979 166.22,62.9313 167.5,61.5C 168.791,61.7373 169.791,61.404 170.5,60.5C 171.791,60.7373 172.791,60.404 173.5,59.5C 195.118,53.8018 217.118,51.4685 239.5,52.5 Z"/></g>
<g><path style="opacity:0.01" fill="#e0e8f5" d="M 255.5,54.5 C 256.601,53.4017 257.934,53.235 259.5,54C 258.207,54.49 256.873,54.6567 255.5,54.5 Z"/></g>
<g><path style="opacity:0.012" fill="#e0e8f5" d="M 260.5,55.5 C 261.251,54.4265 262.251,54.2599 263.5,55C 262.552,55.4828 261.552,55.6495 260.5,55.5 Z"/></g>
<g><path style="opacity:0.004" fill="#da7f4e" d="M 17.5,54.5 C 18.525,54.8966 18.6917,55.5632 18,56.5C 17.5357,55.9056 17.369,55.2389 17.5,54.5 Z"/></g>
<g><path style="opacity:0.008" fill="#e17f4b" d="M 64.5,54.5 C 64.5,55.1667 64.5,55.8333 64.5,56.5C 63.1667,55.8333 63.1667,55.1667 64.5,54.5 Z"/></g>
<g><path style="opacity:0.012" fill="#e5eaf6" d="M 181.5,56.5 C 182.251,55.4265 183.251,55.2599 184.5,56C 183.552,56.4828 182.552,56.6495 181.5,56.5 Z"/></g>
<g><path style="opacity:0.008" fill="#ea7943" d="M 73.5,57.5 C 73.1667,57.5 72.8333,57.5 72.5,57.5C 72.8333,54.8333 73.1667,54.8333 73.5,57.5 Z"/></g>
<g><path style="opacity:0.01" fill="#e1eaf9" d="M 268.5,57.5 C 269.251,56.4265 270.251,56.2599 271.5,57C 270.552,57.4828 269.552,57.6495 268.5,57.5 Z"/></g>
<g><path style="opacity:0.012" fill="#e37f4b" d="M 64.5,56.5 C 64.8333,56.5 65.1667,56.5 65.5,56.5C 65.5,57.5 65.5,58.5 65.5,59.5C 64.596,58.791 64.2627,57.791 64.5,56.5 Z"/></g>
<g><path style="opacity:0.016" fill="#ec793e" d="M 73.5,57.5 C 74.525,57.8966 74.6917,58.5632 74,59.5C 73.5357,58.9056 73.369,58.2389 73.5,57.5 Z"/></g>
<g><path style="opacity:0.012" fill="#e6e8f4" d="M 173.5,59.5 C 172.761,59.631 172.094,59.4643 171.5,59C 172.437,58.3083 173.103,58.475 173.5,59.5 Z"/></g>
<g><path style="opacity:0.012" fill="#e4e8f4" d="M 170.5,60.5 C 169.761,60.631 169.094,60.4643 168.5,60C 169.437,59.3083 170.103,59.475 170.5,60.5 Z"/></g>
<g><path style="opacity:0.012" fill="#e97c49" d="M 65.5,59.5 C 65.8333,59.5 66.1667,59.5 66.5,59.5C 66.1667,62.1667 65.8333,62.1667 65.5,59.5 Z"/></g>
<g><path style="opacity:0.012" fill="#e2e9f4" d="M 167.5,61.5 C 166.761,61.631 166.094,61.4643 165.5,61C 166.437,60.3083 167.103,60.475 167.5,61.5 Z"/></g>
<g><path style="opacity:0.01" fill="#e2e9f6" d="M 162.5,62.5 C 162.897,61.475 163.563,61.3083 164.5,62C 163.906,62.4643 163.239,62.631 162.5,62.5 Z"/></g>
<g><path style="opacity:0.01" fill="#dde9f7" d="M 284.5,62.5 C 284.897,61.475 285.563,61.3083 286.5,62C 285.906,62.4643 285.239,62.631 284.5,62.5 Z"/></g>
<g><path style="opacity:0.012" fill="#e1e9f6" d="M 162.5,62.5 C 162.5,62.8333 162.5,63.1667 162.5,63.5C 159.833,63.1667 159.833,62.8333 162.5,62.5 Z"/></g>
<g><path style="opacity:0.004" fill="#e4e8ed" d="M 289.5,63.5 C 288.761,63.631 288.094,63.4643 287.5,63C 288.437,62.3083 289.103,62.475 289.5,63.5 Z"/></g>
<g><path style="opacity:0.004" fill="#f27844" d="M 67.5,62.5 C 67.5,63.1667 67.5,63.8333 67.5,64.5C 66.1667,63.8333 66.1667,63.1667 67.5,62.5 Z"/></g>
<g><path style="opacity:0.975" fill="#f2783d" d="M 68.5,46.5 C 68.7329,49.5418 69.7329,52.2084 71.5,54.5C 71.2627,55.791 71.596,56.791 72.5,57.5C 73.2635,61.1368 74.5968,64.4701 76.5,67.5C 76.6085,69.5138 75.9418,71.1805 74.5,72.5C 73.8333,72.5 73.1667,72.5 72.5,72.5C 72.0679,71.2905 71.4013,70.2905 70.5,69.5C 70.6716,68.5084 70.3382,67.8417 69.5,67.5C 69.7373,66.209 69.404,65.209 68.5,64.5C 68.6716,63.5084 68.3382,62.8417 67.5,62.5C 67.7373,61.209 67.404,60.209 66.5,59.5C 66.7373,58.209 66.404,57.209 65.5,56.5C 65.6716,55.5084 65.3382,54.8417 64.5,54.5C 64.7373,53.209 64.404,52.209 63.5,51.5C 63.5979,49.4471 62.9313,47.7804 61.5,46.5C 61.5,46.1667 61.5,45.8333 61.5,45.5C 64.247,42.7687 66.5803,43.102 68.5,46.5 Z"/></g>
<g><path style="opacity:0.01" fill="#e2e9f4" d="M 157.5,64.5 C 157.897,63.475 158.563,63.3083 159.5,64C 158.906,64.4643 158.239,64.631 157.5,64.5 Z"/></g>
<g><path style="opacity:0.01" fill="#e2e8f3" d="M 289.5,64.5 C 289.5,64.1667 289.5,63.8333 289.5,63.5C 292.167,63.8333 292.167,64.1667 289.5,64.5 Z"/></g>
<g><path style="opacity:0.012" fill="#e0e8f7" d="M 292.5,64.5 C 293.833,65.1667 293.833,65.1667 292.5,64.5 Z"/></g>
<g><path style="opacity:0.012" fill="#e77b46" d="M 67.5,64.5 C 67.8333,64.5 68.1667,64.5 68.5,64.5C 68.1667,67.1667 67.8333,67.1667 67.5,64.5 Z"/></g>
<g><path style="opacity:0.016" fill="#e07c4d" d="M 76.5,67.5 C 76.369,66.7611 76.5357,66.0944 77,65.5C 77.6917,66.4368 77.525,67.1034 76.5,67.5 Z"/></g>
<g><path style="opacity:0.012" fill="#e4ebf3" d="M 151.5,66.5 C 152.833,67.1667 152.833,67.1667 151.5,66.5 Z"/></g>
<g><path style="opacity:0.016" fill="#e3ebf3" d="M 150.5,68.5 C 149.833,67.1667 149.833,67.1667 150.5,68.5 Z"/></g>
<g><path style="opacity:0.008" fill="#ed7a38" d="M 69.5,67.5 C 69.5,68.1667 69.5,68.8333 69.5,69.5C 68.1667,68.8333 68.1667,68.1667 69.5,67.5 Z"/></g>
<g><path style="opacity:0.016" fill="#e3ebf5" d="M 148.5,69.5 C 147.833,68.1667 147.833,68.1667 148.5,69.5 Z"/></g>
<g><path style="opacity:0.996" fill="#f2783d" d="M 23.5,52.5 C 23.8333,53.5 24.5,54.1667 25.5,54.5C 25.5,55.1667 25.8333,55.5 26.5,55.5C 26.5,56.1667 26.8333,56.5 27.5,56.5C 27.5,57.1667 27.8333,57.5 28.5,57.5C 28.5,58.1667 28.8333,58.5 29.5,58.5C 29.5,59.1667 29.8333,59.5 30.5,59.5C 30.5,60.1667 30.8333,60.5 31.5,60.5C 31.5,61.1667 31.8333,61.5 32.5,61.5C 32.5,62.1667 32.8333,62.5 33.5,62.5C 33.5,63.1667 33.8333,63.5 34.5,63.5C 34.5,64.1667 34.8333,64.5 35.5,64.5C 35.5,65.1667 35.8333,65.5 36.5,65.5C 36.5,66.1667 36.8333,66.5 37.5,66.5C 37.5,67.1667 37.8333,67.5 38.5,67.5C 38.5,68.1667 38.8333,68.5 39.5,68.5C 39.5,69.1667 39.8333,69.5 40.5,69.5C 40.5,70.1667 40.8333,70.5 41.5,70.5C 41.5,71.1667 41.8333,71.5 42.5,71.5C 42.5,72.1667 42.8333,72.5 43.5,72.5C 43.5,73.1667 43.8333,73.5 44.5,73.5C 44.5,74.1667 44.8333,74.5 45.5,74.5C 45.5,75.1667 45.8333,75.5 46.5,75.5C 46.5,76.1667 46.8333,76.5 47.5,76.5C 47.5,77.1667 47.8333,77.5 48.5,77.5C 48.5,78.1667 48.8333,78.5 49.5,78.5C 49.5,79.1667 49.8333,79.5 50.5,79.5C 50.5,80.1667 50.8333,80.5 51.5,80.5C 51.8333,81.5 52.5,82.1667 53.5,82.5C 53.2671,84.0618 52.6005,85.3951 51.5,86.5C 40.5869,77.0906 30.0869,67.0906 20,56.5C 19.8319,54.1589 20.9986,52.8256 23.5,52.5 Z"/></g>
<g><path style="opacity:0.004" fill="#f07743" d="M 51.5,80.5 C 50.8333,80.5 50.5,80.1667 50.5,79.5C 49.8333,79.5 49.5,79.1667 49.5,78.5C 48.8333,78.5 48.5,78.1667 48.5,77.5C 47.8333,77.5 47.5,77.1667 47.5,76.5C 46.8333,76.5 46.5,76.1667 46.5,75.5C 45.8333,75.5 45.5,75.1667 45.5,74.5C 44.8333,74.5 44.5,74.1667 44.5,73.5C 43.8333,73.5 43.5,73.1667 43.5,72.5C 42.8333,72.5 42.5,72.1667 42.5,71.5C 41.8333,71.5 41.5,71.1667 41.5,70.5C 40.8333,70.5 40.5,70.1667 40.5,69.5C 39.8333,69.5 39.5,69.1667 39.5,68.5C 38.8333,68.5 38.5,68.1667 38.5,67.5C 37.8333,67.5 37.5,67.1667 37.5,66.5C 36.8333,66.5 36.5,66.1667 36.5,65.5C 35.8333,65.5 35.5,65.1667 35.5,64.5C 34.8333,64.5 34.5,64.1667 34.5,63.5C 33.8333,63.5 33.5,63.1667 33.5,62.5C 32.8333,62.5 32.5,62.1667 32.5,61.5C 31.8333,61.5 31.5,61.1667 31.5,60.5C 30.8333,60.5 30.5,60.1667 30.5,59.5C 29.8333,59.5 29.5,59.1667 29.5,58.5C 28.8333,58.5 28.5,58.1667 28.5,57.5C 27.8333,57.5 27.5,57.1667 27.5,56.5C 26.8333,56.5 26.5,56.1667 26.5,55.5C 25.8333,55.5 25.5,55.1667 25.5,54.5C 25.369,53.7611 25.5357,53.0944 26,52.5C 35.1667,61.6667 44.3333,70.8333 53.5,80C 52.9056,80.4643 52.2389,80.631 51.5,80.5 Z"/></g>
<g><path style="opacity:0.008" fill="#d68051" d="M 77.5,68.5 C 78.525,68.8966 78.6917,69.5632 78,70.5C 77.5357,69.9056 77.369,69.2389 77.5,68.5 Z"/></g>
<g><path style="opacity:0.016" fill="#e1ebf7" d="M 146.5,70.5 C 145.833,69.1667 145.833,69.1667 146.5,70.5 Z"/></g>
<g><path style="opacity:0.008" fill="#e47d3f" d="M 69.5,69.5 C 69.8333,69.5 70.1667,69.5 70.5,69.5C 70.1667,72.1667 69.8333,72.1667 69.5,69.5 Z"/></g>
<g><path style="opacity:0.012" fill="#e1ebf7" d="M 144.5,71.5 C 143.833,70.1667 143.833,70.1667 144.5,71.5 Z"/></g>
<g><path style="opacity:0.012" fill="#e1ebf0" d="M 141.5,71.5 C 142.833,72.1667 142.833,72.1667 141.5,71.5 Z"/></g>
<g><path style="opacity:0.008" fill="#df7b55" d="M 72.5,72.5 C 71.8333,73.1667 71.8333,73.1667 72.5,72.5 Z"/></g>
<g><path style="opacity:0.008" fill="#df7e47" d="M 74.5,72.5 C 75.8333,73.1667 75.8333,73.1667 74.5,72.5 Z"/></g>
<g><path style="opacity:0.007" fill="#de7c54" d="M 101.5,73.5 C 107.653,72.3467 113.986,72.18 120.5,73C 114.175,73.4995 107.842,73.6662 101.5,73.5 Z"/></g>
<g><path style="opacity:0.004" fill="#e47a4d" d="M 74.5,73.5 C 73.8333,74.1667 73.8333,74.1667 74.5,73.5 Z"/></g>
<g><path style="opacity:0.012" fill="#e6794f" d="M 96.5,74.5 C 97.6009,73.4017 98.9343,73.235 100.5,74C 99.2068,74.49 97.8734,74.6567 96.5,74.5 Z"/></g>
<g><path style="opacity:0.01" fill="#de7f48" d="M 125.5,74.5 C 124.127,74.6567 122.793,74.49 121.5,74C 123.066,73.235 124.399,73.4017 125.5,74.5 Z"/></g>
<g><path style="opacity:0.016" fill="#ee7744" d="M 96.5,74.5 C 96.5,74.8333 96.5,75.1667 96.5,75.5C 92.5,75.1667 92.5,74.8333 96.5,74.5 Z"/></g>
<g><path style="opacity:0.016" fill="#f97e40" d="M 125.5,75.5 C 125.5,75.1667 125.5,74.8333 125.5,74.5C 129.5,74.8333 129.5,75.1667 125.5,75.5 Z"/></g>
<g><path style="opacity:0.01" fill="#e57a48" d="M 92.5,76.5 C 91.7611,76.631 91.0944,76.4643 90.5,76C 91.4368,75.3083 92.1034,75.475 92.5,76.5 Z"/></g>
<g><path style="opacity:0.998" fill="#f1763e" d="M 125.5,75.5 C 126.568,76.4345 127.901,76.7678 129.5,76.5C 130.78,77.9313 132.447,78.5979 134.5,78.5C 137.383,82.0462 141.049,84.3795 145.5,85.5C 147.64,88.0613 149.973,90.3946 152.5,92.5C 153.419,95.0892 155.086,97.0892 157.5,98.5C 158.167,98.8333 158.833,99.1667 159.5,99.5C 161.108,102.382 162.441,105.382 163.5,108.5C 164.18,112.119 164.68,115.786 165,119.5C 165.833,120.5 166.667,121.5 167.5,122.5C 168.495,128.128 168.829,133.794 168.5,139.5C 168.5,140.833 168.5,142.167 168.5,143.5C 167.883,143.611 167.383,143.944 167,144.5C 165.916,149.681 164.416,154.681 162.5,159.5C 161.758,161.98 160.758,164.313 159.5,166.5C 157.413,167.585 156.08,169.251 155.5,171.5C 153.167,171.833 151.833,173.167 151.5,175.5C 148.573,176.757 146.239,178.757 144.5,181.5C 142.973,181.427 141.973,182.094 141.5,183.5C 136.729,186.243 131.729,188.243 126.5,189.5C 126.167,189.5 125.833,189.5 125.5,189.5C 115.5,189.5 105.5,189.5 95.5,189.5C 94.8333,189.5 94.1667,189.5 93.5,189.5C 93.6309,188.624 93.2975,187.957 92.5,187.5C 87.5681,186.075 83.2348,183.575 79.5,180C 78.2068,179.51 76.8734,179.343 75.5,179.5C 73.2947,177.637 71.9613,175.303 71.5,172.5C 70.5,172.5 69.5,172.5 68.5,172.5C 66.5,170.833 64.5,169.167 62.5,167.5C 61.4884,166.128 60.4884,164.795 59.5,163.5C 59.3404,161.847 58.6737,160.514 57.5,159.5C 57.6716,158.508 57.3382,157.842 56.5,157.5C 56.6716,156.508 56.3382,155.842 55.5,155.5C 55.7373,154.209 55.404,153.209 54.5,152.5C 54.2785,149.933 53.6118,147.599 52.5,145.5C 51.0606,136.105 51.3939,126.772 53.5,117.5C 54.7384,115.786 55.405,113.786 55.5,111.5C 57.341,109.151 58.6743,106.485 59.5,103.5C 67.7839,91.2194 78.7839,82.2194 92.5,76.5C 94.099,76.7678 95.4324,76.4345 96.5,75.5C 106.167,74.1667 115.833,74.1667 125.5,75.5 Z"/></g>
<g><path style="opacity:0.008" fill="#f18355" d="M 129.5,76.5 C 129.897,75.475 130.563,75.3083 131.5,76C 130.906,76.4643 130.239,76.631 129.5,76.5 Z"/></g>
<g><path style="opacity:0.012" fill="#d5cacd" d="M 134.5,75.5 C 135.833,76.1667 135.833,76.1667 134.5,75.5 Z"/></g>
<g><path style="opacity:0.016" fill="#e3e9f4" d="M 313.5,75.5 C 314.833,76.1667 314.833,76.1667 313.5,75.5 Z"/></g>
<g><path style="opacity:0.016" fill="#f0754a" d="M 87.5,77.5 C 87.8966,76.475 88.5632,76.3083 89.5,77C 88.9056,77.4643 88.2389,77.631 87.5,77.5 Z"/></g>
<g><path style="opacity:0.012" fill="#e1a281" d="M 134.5,76.5 C 134.5,76.8333 134.5,77.1667 134.5,77.5C 131.833,77.1667 131.833,76.8333 134.5,76.5 Z"/></g>
<g><path style="opacity:0.012" fill="#e3e8f8" d="M 315.5,76.5 C 316.833,77.1667 316.833,77.1667 315.5,76.5 Z"/></g>
<g><path style="opacity:0.98" fill="#f2d5d0" d="M 134.5,77.5 C 134.833,77.5 135.167,77.5 135.5,77.5C 138.058,80.6454 141.391,82.312 145.5,82.5C 145.5,83.5 145.5,84.5 145.5,85.5C 141.049,84.3795 137.383,82.0462 134.5,78.5C 134.5,78.1667 134.5,77.8333 134.5,77.5 Z"/></g>
<g><path style="opacity:0.008" fill="#d4805a" d="M 54.5,82.5 C 53.8333,81.1667 53.8333,81.1667 54.5,82.5 Z"/></g>
<g><path style="opacity:0.012" fill="#ea7a3f" d="M 78.5,81.5 C 79.8333,82.1667 79.8333,82.1667 78.5,81.5 Z"/></g>
<g><path style="opacity:0.016" fill="#e1ebf0" d="M 322.5,81.5 C 323.833,82.1667 323.833,82.1667 322.5,81.5 Z"/></g>
<g><path style="opacity:0.008" fill="#c98462" d="M 54.5,82.5 C 55.525,82.8966 55.6917,83.5632 55,84.5C 54.5357,83.9056 54.369,83.2389 54.5,82.5 Z"/></g>
<g><path style="opacity:0.012" fill="#e1ebf0" d="M 324.5,82.5 C 325.833,83.1667 325.833,83.1667 324.5,82.5 Z"/></g>
<g><path style="opacity:0.004" fill="#df7c4f" d="M 51.5,86.5 C 52.8333,87.1667 52.8333,87.1667 51.5,86.5 Z"/></g>
<g><path style="opacity:0.008" fill="#e57c4e" d="M 51.5,87.5 C 51.1034,88.525 50.4368,88.6917 49.5,88C 50.0944,87.5357 50.7611,87.369 51.5,87.5 Z"/></g>
<g><path style="opacity:0.004" fill="#df7c47" d="M 16.5,94.5 C 17.6009,93.4017 18.9343,93.235 20.5,94C 19.2068,94.49 17.8734,94.6567 16.5,94.5 Z"/></g>
<g><path style="opacity:0.008" fill="#e77842" d="M 6.5,94.5 C 7.83333,95.1667 7.83333,95.1667 6.5,94.5 Z"/></g>
<g><path style="opacity:0.012" fill="#ec793e" d="M 21.5,95.5 C 22.2506,94.4265 23.2506,94.2599 24.5,95C 23.552,95.4828 22.552,95.6495 21.5,95.5 Z"/></g>
<g><path style="opacity:0.012" fill="#e27c49" d="M 25.5,96.5 C 26.2506,95.4265 27.2506,95.2599 28.5,96C 27.552,96.4828 26.552,96.6495 25.5,96.5 Z"/></g>
<g><path style="opacity:0.012" fill="#de8046" d="M 29.5,97.5 C 30.2506,96.4265 31.2506,96.2599 32.5,97C 31.552,97.4828 30.552,97.6495 29.5,97.5 Z"/></g>
<g><path style="opacity:1" fill="#da8c70" d="M 152.5,92.5 C 154.914,93.9108 156.581,95.9108 157.5,98.5C 155.086,97.0892 153.419,95.0892 152.5,92.5 Z"/></g>
<g><path style="opacity:0.008" fill="#f17641" d="M 7.5,98.5 C 6.47498,98.1034 6.30831,97.4368 7,96.5C 7.46434,97.0944 7.63101,97.7611 7.5,98.5 Z"/></g>
<g><path style="opacity:0.898" fill="#f4773f" d="M 16.5,94.5 C 21.8785,96.5932 27.5451,97.9265 33.5,98.5C 34.5676,99.4345 35.901,99.7678 37.5,99.5C 40.6057,99.7884 42.6057,101.455 43.5,104.5C 42.5,104.833 41.8333,105.5 41.5,106.5C 40.5,106.5 39.5,106.5 38.5,106.5C 37.4324,105.566 36.099,105.232 34.5,105.5C 33.4324,104.566 32.099,104.232 30.5,104.5C 23.3533,102.211 16.0199,100.211 8.5,98.5C 8.28649,96.8561 8.61983,95.3561 9.5,94C 11.7972,93.9822 14.1305,94.1489 16.5,94.5 Z"/></g>
<g><path style="opacity:0.012" fill="#e0814d" d="M 33.5,98.5 C 34.2506,97.4265 35.2506,97.2599 36.5,98C 35.552,98.4828 34.552,98.6495 33.5,98.5 Z"/></g>
<g><path style="opacity:0.004" fill="#f8753a" d="M 7.5,98.5 C 7.83333,98.5 8.16667,98.5 8.5,98.5C 8.5,98.8333 8.5,99.1667 8.5,99.5C 8.16667,99.1667 7.83333,98.8333 7.5,98.5 Z"/></g>
<g><path style="opacity:0.012" fill="#f37743" d="M 37.5,99.5 C 38.2506,98.4265 39.2506,98.2599 40.5,99C 39.552,99.4828 38.552,99.6495 37.5,99.5 Z"/></g>
<g><path style="opacity:0.008" fill="#f3773c" d="M 8.5,99.5 C 9.83333,100.167 9.83333,100.167 8.5,99.5 Z"/></g>
<g><path style="opacity:0.009" fill="#e47e4d" d="M 10.5,101.5 C 11.2506,100.427 12.2506,100.26 13.5,101C 12.552,101.483 11.552,101.649 10.5,101.5 Z"/></g>
<g><path style="opacity:1" fill="#edd4cc" d="M 159.5,99.5 C 160.496,99.4142 161.329,99.7476 162,100.5C 162.941,103.154 163.774,105.821 164.5,108.5C 164.167,108.5 163.833,108.5 163.5,108.5C 162.441,105.382 161.108,102.382 159.5,99.5 Z"/></g>
<g><path style="opacity:0.012" fill="#e77c3d" d="M 59.5,103.5 C 59.1667,103.5 58.8333,103.5 58.5,103.5C 58.8333,100.833 59.1667,100.833 59.5,103.5 Z"/></g>
<g><path style="opacity:1" fill="#dc8356" d="M 131.5,112.5 C 131.167,112.5 130.833,112.5 130.5,112.5C 127.434,107.116 122.767,104.116 116.5,103.5C 112.354,102.353 108.02,102.186 103.5,103C 102.944,103.383 102.611,103.883 102.5,104.5C 101.833,104.5 101.167,104.5 100.5,104.5C 100.953,103.542 101.619,102.708 102.5,102C 112.72,99.7579 121.72,101.925 129.5,108.5C 130.705,109.577 131.372,110.91 131.5,112.5 Z"/></g>
<g><path style="opacity:1" fill="#f9bd97" d="M 116.5,103.5 C 111.77,103.283 107.103,103.617 102.5,104.5C 102.611,103.883 102.944,103.383 103.5,103C 108.02,102.186 112.354,102.353 116.5,103.5 Z"/></g>
<g><path style="opacity:0.004" fill="#dc7d50" d="M 44.5,104.5 C 44.369,103.761 44.5357,103.094 45,102.5C 45.6917,103.437 45.525,104.103 44.5,104.5 Z"/></g>
<g><path style="opacity:0.012" fill="#e47d3f" d="M 58.5,103.5 C 57.8333,104.167 57.8333,104.167 58.5,103.5 Z"/></g>
<g><path style="opacity:0.008" fill="#df7c51" d="M 30.5,104.5 C 29.3991,105.598 28.0657,105.765 26.5,105C 27.7932,104.51 29.1266,104.343 30.5,104.5 Z"/></g>
<g><path style="opacity:0.008" fill="#e37b42" d="M 43.5,104.5 C 43.8333,104.5 44.1667,104.5 44.5,104.5C 44.3147,105.17 43.9813,105.17 43.5,104.5 Z"/></g>
<g><path style="opacity:0.01" fill="#ef7645" d="M 34.5,105.5 C 33.7494,106.573 32.7494,106.74 31.5,106C 32.448,105.517 33.448,105.351 34.5,105.5 Z"/></g>
<g><path style="opacity:0.012" fill="#e57a49" d="M 56.5,105.5 C 57.8333,106.167 57.8333,106.167 56.5,105.5 Z"/></g>
<g><path style="opacity:1" fill="#fefbf6" d="M 116.5,103.5 C 122.767,104.116 127.434,107.116 130.5,112.5C 132.155,118.34 133.488,124.34 134.5,130.5C 133.309,137.613 131.976,144.613 130.5,151.5C 129.19,154.473 127.19,156.807 124.5,158.5C 115.791,162.375 107.124,162.375 98.5,158.5C 93.9142,154.327 90.5809,149.327 88.5,143.5C 87.2074,135.826 87.2074,128.159 88.5,120.5C 90.6502,113.696 94.6502,108.362 100.5,104.5C 101.167,104.5 101.833,104.5 102.5,104.5C 107.103,103.617 111.77,103.283 116.5,103.5 Z"/></g>
<g><path style="opacity:0.012" fill="#e87753" d="M 38.5,106.5 C 37.7494,107.573 36.7494,107.74 35.5,107C 36.448,106.517 37.448,106.351 38.5,106.5 Z"/></g>
<g><path style="opacity:0.004" fill="#e1794e" d="M 41.5,106.5 C 42.8333,107.167 42.8333,107.167 41.5,106.5 Z"/></g>
<g><path style="opacity:0.004" fill="#de7c4b" d="M 41.5,107.5 C 41.1034,108.525 40.4368,108.692 39.5,108C 40.0944,107.536 40.7611,107.369 41.5,107.5 Z"/></g>
<g><path style="opacity:0.012" fill="#ec7749" d="M 55.5,107.5 C 56.8333,108.167 56.8333,108.167 55.5,107.5 Z"/></g>
<g><path style="opacity:0.008" fill="#ea7846" d="M 55.5,111.5 C 55.1667,111.5 54.8333,111.5 54.5,111.5C 54.8333,108.833 55.1667,108.833 55.5,111.5 Z"/></g>
<g><path style="opacity:0.016" fill="#dd7e4d" d="M 54.5,111.5 C 54.631,112.239 54.4643,112.906 54,113.5C 53.3083,112.563 53.475,111.897 54.5,111.5 Z"/></g>
<g><path style="opacity:0.012" fill="#f67545" d="M 53.5,117.5 C 53.1667,117.5 52.8333,117.5 52.5,117.5C 52.8333,113.5 53.1667,113.5 53.5,117.5 Z"/></g>
<g><path style="opacity:0.009" fill="#e27d4e" d="M 52.5,117.5 C 52.6495,118.552 52.4828,119.552 52,120.5C 51.2599,119.251 51.4265,118.251 52.5,117.5 Z"/></g>
<g><path style="opacity:0.014" fill="#5393c7" d="M 360.5,118.5 C 360.369,117.761 360.536,117.094 361,116.5C 364.745,117.297 368.579,117.797 372.5,118C 368.514,118.499 364.514,118.666 360.5,118.5 Z"/></g>
<g><path style="opacity:1" fill="#95c3e9" d="M 357.5,119.5 C 352.77,119.283 348.103,119.617 343.5,120.5C 343.611,119.883 343.944,119.383 344.5,119C 349.02,118.186 353.354,118.353 357.5,119.5 Z"/></g>
<g><path style="opacity:0.01" fill="#3e91d2" d="M 375.5,119.5 C 376.601,118.402 377.934,118.235 379.5,119C 378.207,119.49 376.873,119.657 375.5,119.5 Z"/></g>
<g><path style="opacity:1" fill="#e44413" d="M 115.5,116.5 C 115.539,117.583 115.873,118.583 116.5,119.5C 114.922,120.298 113.256,120.798 111.5,121C 107.056,125.87 105.056,131.703 105.5,138.5C 104.324,132.317 104.324,125.983 105.5,119.5C 108.002,115.576 111.336,114.576 115.5,116.5 Z"/></g>
<g><path style="opacity:1" fill="#dd8563" d="M 163.5,108.5 C 163.833,108.5 164.167,108.5 164.5,108.5C 168.996,118.309 170.663,128.642 169.5,139.5C 169.167,139.5 168.833,139.5 168.5,139.5C 168.829,133.794 168.495,128.128 167.5,122.5C 166.667,121.5 165.833,120.5 165,119.5C 164.68,115.786 164.18,112.119 163.5,108.5 Z"/></g>
<g><path style="opacity:0.008" fill="#3f92d1" d="M 380.5,119.5 C 381.833,120.167 381.833,120.167 380.5,119.5 Z"/></g>
<g><path style="opacity:0.008" fill="#3395dd" d="M 383.5,122.5 C 382.833,121.167 382.833,121.167 383.5,122.5 Z"/></g>
<g><path style="opacity:1" fill="#3794db" d="M 361.5,119.5 C 368.778,119.019 375.778,120.019 382.5,122.5C 382.5,125.167 382.5,127.833 382.5,130.5C 381.566,131.568 381.232,132.901 381.5,134.5C 380.833,134.5 380.5,134.833 380.5,135.5C 378.521,137.168 376.188,137.834 373.5,137.5C 366.588,136.538 359.588,136.205 352.5,136.5C 351.503,141.161 350.503,145.827 349.5,150.5C 344.044,150.617 338.377,150.617 332.5,150.5C 332.5,149.5 332.5,148.5 332.5,147.5C 332.956,144.094 333.622,140.761 334.5,137.5C 337.14,132.93 339.474,128.096 341.5,123C 342.5,122.5 343.5,122 344.5,121.5C 349.875,121.579 355.208,121.912 360.5,122.5C 361.386,121.675 361.719,120.675 361.5,119.5 Z"/></g>
<g><path style="opacity:0.007" fill="#3b93d5" d="M 383.5,122.5 C 384.573,123.251 384.74,124.251 384,125.5C 383.517,124.552 383.351,123.552 383.5,122.5 Z"/></g>
<g><path style="opacity:0.012" fill="#fa7442" d="M 50.5,121.5 C 51.6129,122.946 51.7796,124.613 51,126.5C 50.5065,124.866 50.3398,123.199 50.5,121.5 Z"/></g>
<g><path style="opacity:0.009" fill="#3a94d5" d="M 383.5,130.5 C 383.343,129.127 383.51,127.793 384,126.5C 384.765,128.066 384.598,129.399 383.5,130.5 Z"/></g>
<g><path style="opacity:1" fill="#4e94ca" d="M 357.5,119.5 C 358.5,119.5 359.5,119.5 360.5,119.5C 360.833,119.5 361.167,119.5 361.5,119.5C 361.719,120.675 361.386,121.675 360.5,122.5C 355.208,121.912 349.875,121.579 344.5,121.5C 343.5,122 342.5,122.5 341.5,123C 339.474,128.096 337.14,132.93 334.5,137.5C 335.493,132.686 336.993,128.019 339,123.5C 340.129,121.859 341.629,120.859 343.5,120.5C 348.103,119.617 352.77,119.283 357.5,119.5 Z"/></g>
<g><path style="opacity:1" fill="#d35c3b" d="M 105.5,119.5 C 104.324,125.983 104.324,132.317 105.5,138.5C 106.417,141.005 106.417,143.338 105.5,145.5C 102.763,138.787 101.93,131.787 103,124.5C 103.374,122.509 104.207,120.842 105.5,119.5 Z"/></g>
<g><path style="opacity:0.005" fill="#dd7d51" d="M 49.5,128.5 C 50.6408,131.64 50.8075,134.973 50,138.5C 49.5017,135.183 49.335,131.85 49.5,128.5 Z"/></g>
<g><path style="opacity:0.004" fill="#4192cd" d="M 382.5,130.5 C 382.833,130.5 383.167,130.5 383.5,130.5C 383.768,132.099 383.434,133.432 382.5,134.5C 382.5,133.167 382.5,131.833 382.5,130.5 Z"/></g>
<g><path style="opacity:0.012" fill="#499fd6" d="M 381.5,134.5 C 381.833,134.5 382.167,134.5 382.5,134.5C 382.315,135.17 381.981,135.17 381.5,134.5 Z"/></g>
<g><path style="opacity:0.004" fill="#3999d1" d="M 380.5,135.5 C 380.833,135.5 381.167,135.5 381.5,135.5C 381.315,136.17 380.981,136.17 380.5,135.5 Z"/></g>
<g><path style="opacity:1" fill="#e08f66" d="M 88.5,120.5 C 87.2074,128.159 87.2074,135.826 88.5,143.5C 86.0575,140.535 85.0575,137.035 85.5,133C 85.1941,128.394 86.1941,124.227 88.5,120.5 Z"/></g>
<g><path style="opacity:1" fill="#ffe8d3" d="M 130.5,112.5 C 130.833,112.5 131.167,112.5 131.5,112.5C 132.987,115.473 134.32,118.473 135.5,121.5C 136.905,129.566 136.572,137.566 134.5,145.5C 133.347,147.636 132.014,149.636 130.5,151.5C 131.976,144.613 133.309,137.613 134.5,130.5C 133.488,124.34 132.155,118.34 130.5,112.5 Z"/></g>
<g><path style="opacity:1" fill="#ef763d" d="M 115.5,116.5 C 117.25,117.659 118.25,119.326 118.5,121.5C 118.786,129.939 118.119,138.272 116.5,146.5C 113.863,148.427 110.863,148.927 107.5,148C 106.619,147.292 105.953,146.458 105.5,145.5C 106.417,143.338 106.417,141.005 105.5,138.5C 105.056,131.703 107.056,125.87 111.5,121C 113.256,120.798 114.922,120.298 116.5,119.5C 115.873,118.583 115.539,117.583 115.5,116.5 Z"/></g>
<g><path style="opacity:0.016" fill="#95badf" d="M 375.5,140.5 C 375.843,138.775 376.843,138.275 378.5,139C 377.473,139.513 376.473,140.013 375.5,140.5 Z"/></g>
<g><path style="opacity:1" fill="#de855a" d="M 118.5,121.5 C 119.222,121.918 119.722,122.584 120,123.5C 120.667,128.833 120.667,134.167 120,139.5C 119.33,142.174 118.163,144.507 116.5,146.5C 118.119,138.272 118.786,129.939 118.5,121.5 Z"/></g>
<g><path style="opacity:0.999" fill="#dfe9f8" d="M 373.5,138.5 C 374.167,139.167 374.833,139.833 375.5,140.5C 375.992,142.819 376.992,144.819 378.5,146.5C 379.659,150.151 381.326,153.485 383.5,156.5C 383.402,158.553 384.069,160.22 385.5,161.5C 385.402,163.553 386.069,165.22 387.5,166.5C 387.263,167.791 387.596,168.791 388.5,169.5C 388.595,171.786 389.262,173.786 390.5,175.5C 390.898,179.761 391.898,183.761 393.5,187.5C 393.216,189.415 393.549,191.081 394.5,192.5C 394.624,197.049 395.291,201.382 396.5,205.5C 397.418,220.828 397.085,236.162 395.5,251.5C 393.882,256.256 392.882,261.256 392.5,266.5C 391.076,268.515 390.41,270.848 390.5,273.5C 389.596,274.209 389.263,275.209 389.5,276.5C 388.596,277.209 388.263,278.209 388.5,279.5C 387.596,280.209 387.263,281.209 387.5,282.5C 386.596,283.209 386.263,284.209 386.5,285.5C 385.069,286.78 384.402,288.447 384.5,290.5C 383.662,290.842 383.328,291.508 383.5,292.5C 382.069,293.78 381.402,295.447 381.5,297.5C 380.662,297.842 380.328,298.508 380.5,299.5C 379.662,299.842 379.328,300.508 379.5,301.5C 378.662,301.842 378.328,302.508 378.5,303.5C 377.662,303.842 377.328,304.508 377.5,305.5C 376.662,305.842 376.328,306.508 376.5,307.5C 375.833,307.5 375.5,307.833 375.5,308.5C 374.662,308.842 374.328,309.508 374.5,310.5C 373.662,310.842 373.328,311.508 373.5,312.5C 372.662,312.842 372.328,313.508 372.5,314.5C 371.833,314.5 371.5,314.833 371.5,315.5C 370.662,315.842 370.328,316.508 370.5,317.5C 369.833,317.5 369.5,317.833 369.5,318.5C 368.662,318.842 368.328,319.508 368.5,320.5C 367.833,320.5 367.5,320.833 367.5,321.5C 366.662,321.842 366.328,322.508 366.5,323.5C 365.833,323.5 365.5,323.833 365.5,324.5C 364.094,324.973 363.427,325.973 363.5,327.5C 362.833,327.5 362.5,327.833 362.5,328.5C 361.094,328.973 360.427,329.973 360.5,331.5C 359.833,331.5 359.5,331.833 359.5,332.5C 357.457,333.579 356.124,335.246 355.5,337.5C 354.833,337.5 354.5,337.833 354.5,338.5C 353.833,338.5 353.5,338.833 353.5,339.5C 352.833,339.5 352.5,339.833 352.5,340.5C 351.833,340.5 351.5,340.833 351.5,341.5C 350.833,341.5 350.5,341.833 350.5,342.5C 349.833,342.5 349.5,342.833 349.5,343.5C 347.167,345.167 345.167,347.167 343.5,349.5C 342.833,349.5 342.5,349.833 342.5,350.5C 341.833,350.5 341.5,350.833 341.5,351.5C 340.833,351.5 340.5,351.833 340.5,352.5C 339.833,352.5 339.5,352.833 339.5,353.5C 338.833,353.5 338.5,353.833 338.5,354.5C 337.833,354.5 337.5,354.833 337.5,355.5C 335.246,356.124 333.579,357.457 332.5,359.5C 331.833,359.5 331.5,359.833 331.5,360.5C 329.973,360.427 328.973,361.094 328.5,362.5C 327.833,362.5 327.5,362.833 327.5,363.5C 325.973,363.427 324.973,364.094 324.5,365.5C 323.833,365.5 323.5,365.833 323.5,366.5C 322.833,366.5 322.167,366.5 321.5,366.5C 320.883,366.389 320.383,366.056 320,365.5C 319.502,362.183 319.335,358.85 319.5,355.5C 316.753,355.813 314.086,355.48 311.5,354.5C 312.638,351.369 312.304,348.369 310.5,345.5C 315.06,339.587 316.56,332.92 315,325.5C 313.173,321.533 311.673,317.533 310.5,313.5C 312.525,303.403 314.858,293.403 317.5,283.5C 318.167,282.5 318.833,281.5 319.5,280.5C 321.645,279.346 323.645,278.013 325.5,276.5C 323.257,275.588 322.257,273.922 322.5,271.5C 324.011,262.791 325.845,254.124 328,245.5C 328.333,246.167 328.667,246.833 329,247.5C 329.424,245.485 330.258,243.651 331.5,242C 331.04,240.699 330.706,239.366 330.5,238C 331.308,233.511 331.975,229.011 332.5,224.5C 332.5,224.167 332.5,223.833 332.5,223.5C 334.648,219.03 336.482,214.364 338,209.5C 339.106,204.231 339.773,198.897 340,193.5C 341,192.833 342,192.167 343,191.5C 343.333,187.833 343.667,184.167 344,180.5C 344.667,179.833 345.333,179.167 346,178.5C 346.148,172.751 346.814,167.085 348,161.5C 348.974,163.878 349.641,163.544 350,160.5C 350.903,159.299 352.069,158.465 353.5,158C 352.584,157.626 351.75,157.126 351,156.5C 348.724,149.925 350.891,146.258 357.5,145.5C 357.275,143.284 358.108,141.617 360,140.5C 363.509,143.008 367.009,143.008 370.5,140.5C 369.624,139.749 368.624,139.249 367.5,139C 369.473,138.505 371.473,138.338 373.5,138.5 Z"/></g>
<g><path style="opacity:1" fill="#d04924" d="M 135.5,121.5 C 137.585,123.684 138.585,126.351 138.5,129.5C 138.827,134.214 138.493,138.88 137.5,143.5C 136.482,144.193 135.482,144.859 134.5,145.5C 136.572,137.566 136.905,129.566 135.5,121.5 Z"/></g>
<g><path style="opacity:1" fill="#d3e9fc" d="M 191.5,140.5 C 206.187,140.743 220.854,141.41 235.5,142.5C 238.167,141.833 240.833,141.167 243.5,140.5C 256.558,142.613 269.725,143.946 283,144.5C 291.699,143.354 299.866,144.687 307.5,148.5C 268.663,146.179 229.996,143.512 191.5,140.5 Z"/></g>
<g><path style="opacity:1" fill="#4fb3f3" d="M 177.5,143.5 C 197.947,143.739 218.614,144.239 239.5,145C 246.666,146.298 254,146.965 261.5,147C 261.957,147.414 262.291,147.914 262.5,148.5C 265.802,149.329 269.135,149.996 272.5,150.5C 276.394,149.193 280.394,148.527 284.5,148.5C 298.258,150.101 312.091,151.101 326,151.5C 328.361,151.496 330.527,151.163 332.5,150.5C 338.377,150.617 344.044,150.617 349.5,150.5C 343.932,174.935 338.266,199.268 332.5,223.5C 332.5,223.833 332.5,224.167 332.5,224.5C 328.889,235.934 325.722,247.601 323,259.5C 321.637,266.478 320.471,273.478 319.5,280.5C 318.833,281.5 318.167,282.5 317.5,283.5C 317.649,282.448 317.483,281.448 317,280.5C 312.571,287.078 306.404,289.744 298.5,288.5C 298.167,288.5 297.833,288.5 297.5,288.5C 280.616,286.104 263.45,283.77 246,281.5C 235.852,282.579 225.685,282.746 215.5,282C 190.805,278.952 166.138,276.785 141.5,275.5C 136.353,273.175 133.187,269.175 132,263.5C 131.412,255.134 130.579,246.8 129.5,238.5C 130.487,233.695 130.821,228.695 130.5,223.5C 134.454,222.193 135.454,219.526 133.5,215.5C 131.851,214.352 130.351,213.019 129,211.5C 128.1,207.166 127.266,202.832 126.5,198.5C 155.057,190.619 172.057,172.286 177.5,143.5 Z"/></g>
<g><path style="opacity:0.008" fill="#e0e9f3" d="M 379.5,146.5 C 379.167,146.5 378.833,146.5 378.5,146.5C 378.833,143.833 379.167,143.833 379.5,146.5 Z"/></g>
<g><path style="opacity:0.012" fill="#e3e9f4" d="M 379.5,146.5 C 380.833,147.167 380.833,147.167 379.5,146.5 Z"/></g>
<g><path style="opacity:0.008" fill="#e27b4c" d="M 52.5,145.5 C 52.6567,146.873 52.49,148.207 52,149.5C 51.235,147.934 51.4017,146.601 52.5,145.5 Z"/></g>
<g><path style="opacity:0.012" fill="#e3e9f4" d="M 380.5,148.5 C 381.833,149.167 381.833,149.167 380.5,148.5 Z"/></g>
<g><path style="opacity:1" fill="#80899b" d="M 168.5,139.5 C 168.833,139.5 169.167,139.5 169.5,139.5C 169.665,142.518 169.498,145.518 169,148.5C 168.722,149.416 168.222,150.082 167.5,150.5C 167.674,148.139 168.007,145.806 168.5,143.5C 168.5,142.167 168.5,140.833 168.5,139.5 Z"/></g>
<g><path style="opacity:1" fill="#60b3e9" d="M 177.5,140.5 C 182.167,140.5 186.833,140.5 191.5,140.5C 229.996,143.512 268.663,146.179 307.5,148.5C 316.022,150.145 324.355,149.812 332.5,147.5C 332.5,148.5 332.5,149.5 332.5,150.5C 330.527,151.163 328.361,151.496 326,151.5C 312.091,151.101 298.258,150.101 284.5,148.5C 280.394,148.527 276.394,149.193 272.5,150.5C 269.135,149.996 265.802,149.329 262.5,148.5C 262.291,147.914 261.957,147.414 261.5,147C 254,146.965 246.666,146.298 239.5,145C 218.614,144.239 197.947,143.739 177.5,143.5C 177.5,142.5 177.5,141.5 177.5,140.5 Z"/></g>
<g><path style="opacity:0.012" fill="#e07c4e" d="M 54.5,152.5 C 54.5,153.5 54.5,154.5 54.5,155.5C 53.1667,154.5 53.1667,153.5 54.5,152.5 Z"/></g>
<g><path style="opacity:1" fill="#d27e59" d="M 168.5,143.5 C 168.007,145.806 167.674,148.139 167.5,150.5C 166.069,153.701 164.403,156.701 162.5,159.5C 164.416,154.681 165.916,149.681 167,144.5C 167.383,143.944 167.883,143.611 168.5,143.5 Z"/></g>
<g><path style="opacity:0.01" fill="#e1e8f7" d="M 384.5,156.5 C 384.167,156.5 383.833,156.5 383.5,156.5C 383.833,153.833 384.167,153.833 384.5,156.5 Z"/></g>
<g><path style="opacity:0.008" fill="#ed7746" d="M 54.5,155.5 C 54.8333,155.5 55.1667,155.5 55.5,155.5C 55.5,156.167 55.5,156.833 55.5,157.5C 54.6618,157.158 54.3284,156.492 54.5,155.5 Z"/></g>
<g><path style="opacity:1" fill="#e64410" d="M 138.5,129.5 C 141.277,141.821 138.277,152.654 129.5,162C 122.437,166.28 114.77,167.613 106.5,166C 104.654,164.97 102.987,163.804 101.5,162.5C 107.865,162.706 114.198,162.373 120.5,161.5C 122.588,161.38 123.922,160.38 124.5,158.5C 127.19,156.807 129.19,154.473 130.5,151.5C 132.014,149.636 133.347,147.636 134.5,145.5C 135.482,144.859 136.482,144.193 137.5,143.5C 138.493,138.88 138.827,134.214 138.5,129.5 Z"/></g>
<g><path style="opacity:1" fill="#cfe8fc" d="M 373.5,137.5 C 373.5,137.833 373.5,138.167 373.5,138.5C 371.473,138.338 369.473,138.505 367.5,139C 368.624,139.249 369.624,139.749 370.5,140.5C 367.009,143.008 363.509,143.008 360,140.5C 358.108,141.617 357.275,143.284 357.5,145.5C 350.891,146.258 348.724,149.925 351,156.5C 351.75,157.126 352.584,157.626 353.5,158C 352.069,158.465 350.903,159.299 350,160.5C 349.641,163.544 348.974,163.878 348,161.5C 346.814,167.085 346.148,172.751 346,178.5C 345.333,179.167 344.667,179.833 344,180.5C 343.667,184.167 343.333,187.833 343,191.5C 342,192.167 341,192.833 340,193.5C 339.773,198.897 339.106,204.231 338,209.5C 336.482,214.364 334.648,219.03 332.5,223.5C 338.266,199.268 343.932,174.935 349.5,150.5C 350.503,145.827 351.503,141.161 352.5,136.5C 359.588,136.205 366.588,136.538 373.5,137.5 Z"/></g>
<g><path style="opacity:0.01" fill="#e1e8f8" d="M 384.5,156.5 C 385.525,156.897 385.692,157.563 385,158.5C 384.536,157.906 384.369,157.239 384.5,156.5 Z"/></g>
<g><path style="opacity:0.012" fill="#e57a4a" d="M 55.5,157.5 C 55.8333,157.5 56.1667,157.5 56.5,157.5C 56.5,158.167 56.5,158.833 56.5,159.5C 55.6618,159.158 55.3284,158.492 55.5,157.5 Z"/></g>
<g><path style="opacity:0.012" fill="#e1e9f6" d="M 386.5,161.5 C 386.167,161.5 385.833,161.5 385.5,161.5C 385.833,158.833 386.167,158.833 386.5,161.5 Z"/></g>
<g><path style="opacity:0.012" fill="#dd7e49" d="M 56.5,159.5 C 56.8333,159.5 57.1667,159.5 57.5,159.5C 57.1667,162.167 56.8333,162.167 56.5,159.5 Z"/></g>
<g><path style="opacity:1" fill="#d34e22" d="M 98.5,158.5 C 107.124,162.375 115.791,162.375 124.5,158.5C 123.922,160.38 122.588,161.38 120.5,161.5C 114.198,162.373 107.865,162.706 101.5,162.5C 100.357,162.092 99.3569,161.425 98.5,160.5C 97.4502,159.571 97.4502,158.905 98.5,158.5 Z"/></g>
<g><path style="opacity:0.01" fill="#e3e9f4" d="M 386.5,161.5 C 387.525,161.897 387.692,162.563 387,163.5C 386.536,162.906 386.369,162.239 386.5,161.5 Z"/></g>
<g><path style="opacity:0.016" fill="#ef7643" d="M 59.5,163.5 C 58.8333,164.167 58.8333,164.167 59.5,163.5 Z"/></g>
<g><path style="opacity:0.01" fill="#e3e9f4" d="M 387.5,166.5 C 387.369,165.761 387.536,165.094 388,164.5C 388.692,165.437 388.525,166.103 387.5,166.5 Z"/></g>
<g><path style="opacity:0.012" fill="#e0e8f4" d="M 388.5,169.5 C 388.369,168.761 388.536,168.094 389,167.5C 389.692,168.437 389.525,169.103 388.5,169.5 Z"/></g>
<g><path style="opacity:1" fill="#f4c9c0" d="M 62.5,167.5 C 64.5,169.167 66.5,170.833 68.5,172.5C 68.5,173.167 68.5,173.833 68.5,174.5C 66.4268,172.42 64.0934,170.754 61.5,169.5C 61.3284,168.508 61.6618,167.842 62.5,167.5 Z"/></g>
<g><path style="opacity:0.012" fill="#e9e4e3" d="M 60.5,170.5 C 59.475,170.103 59.3083,169.437 60,168.5C 60.4643,169.094 60.631,169.761 60.5,170.5 Z"/></g>
<g><path style="opacity:1" fill="#9a8687" d="M 159.5,166.5 C 158.92,168.749 157.587,170.415 155.5,171.5C 156.08,169.251 157.413,167.585 159.5,166.5 Z"/></g>
<g><path style="opacity:1" fill="#1b7ac2" d="M 201.5,176.5 C 201.649,177.552 201.483,178.552 201,179.5C 195.471,174.956 190.804,175.623 187,181.5C 186.505,179.527 186.338,177.527 186.5,175.5C 187.649,171.997 190.149,170.331 194,170.5C 198.374,170.26 200.874,172.26 201.5,176.5 Z"/></g>
<g><path style="opacity:0.012" fill="#e4e8f4" d="M 59.5,173.5 C 58.475,173.103 58.3083,172.437 59,171.5C 59.4643,172.094 59.631,172.761 59.5,173.5 Z"/></g>
<g><path style="opacity:0.009" fill="#e1e9f4" d="M 390.5,175.5 C 390.351,174.448 390.517,173.448 391,172.5C 391.74,173.749 391.573,174.749 390.5,175.5 Z"/></g>
<g><path style="opacity:1" fill="#b9817e" d="M 155.5,171.5 C 154.5,173.167 153.167,174.5 151.5,175.5C 151.833,173.167 153.167,171.833 155.5,171.5 Z"/></g>
<g><path style="opacity:1" fill="#e18b65" d="M 68.5,172.5 C 69.5,172.5 70.5,172.5 71.5,172.5C 71.9613,175.303 73.2947,177.637 75.5,179.5C 72.9066,178.246 70.5732,176.58 68.5,174.5C 68.5,173.833 68.5,173.167 68.5,172.5 Z"/></g>
<g><path style="opacity:1" fill="#3495db" d="M 186.5,175.5 C 186.338,177.527 186.505,179.527 187,181.5C 190.804,175.623 195.471,174.956 201,179.5C 201.483,178.552 201.649,177.552 201.5,176.5C 204.43,197.945 206.763,219.611 208.5,241.5C 208.514,249.648 204.514,252.815 196.5,251C 195.333,249.833 194.167,248.667 193,247.5C 190.446,225.183 187.946,202.85 185.5,180.5C 185.507,178.631 185.84,176.964 186.5,175.5 Z"/></g>
<g><path style="opacity:1" fill="#1c7bc4" d="M 277.5,187.5 C 275.416,185.923 273.416,184.09 271.5,182C 267.328,180.709 264.161,181.876 262,185.5C 261.536,184.906 261.369,184.239 261.5,183.5C 262.392,177.048 266.059,174.548 272.5,176C 277.063,178.425 278.729,182.258 277.5,187.5 Z"/></g>
<g><path style="opacity:0.012" fill="#e4e8f4" d="M 57.5,180.5 C 56.4265,179.749 56.2599,178.749 57,177.5C 57.4828,178.448 57.6495,179.448 57.5,180.5 Z"/></g>
<g><path style="opacity:1" fill="#a18586" d="M 151.5,175.5 C 149.761,178.243 147.427,180.243 144.5,181.5C 146.239,178.757 148.573,176.757 151.5,175.5 Z"/></g>
<g><path style="opacity:0.999" fill="#dfe9f8" d="M 61.5,169.5 C 64.0934,170.754 66.4268,172.42 68.5,174.5C 70.5732,176.58 72.9066,178.246 75.5,179.5C 80.5991,184.384 86.5991,187.718 93.5,189.5C 94.1667,189.5 94.8333,189.5 95.5,189.5C 95.5,189.833 95.5,190.167 95.5,190.5C 96.3479,192.093 97.6813,193.26 99.5,194C 107.521,194.832 115.521,194.665 123.5,193.5C 124.127,192.583 124.461,191.583 124.5,190.5C 124.833,190.5 125.167,190.5 125.5,190.5C 125.5,193.167 125.5,195.833 125.5,198.5C 125.539,203.184 125.872,207.851 126.5,212.5C 126.33,214.715 125.663,216.715 124.5,218.5C 125.325,219.386 126.325,219.719 127.5,219.5C 128.167,225.833 128.833,232.167 129.5,238.5C 130.579,246.8 131.412,255.134 132,263.5C 133.187,269.175 136.353,273.175 141.5,275.5C 142.058,276.79 143.058,277.623 144.5,278C 149.53,278.448 154.53,279.114 159.5,280C 178.218,280.569 196.885,281.736 215.5,283.5C 215.918,284.222 216.584,284.722 217.5,285C 229.917,285.668 242.25,286.668 254.5,288C 264.161,288.5 273.828,288.666 283.5,288.5C 288.167,288.5 292.833,288.5 297.5,288.5C 297.833,288.5 298.167,288.5 298.5,288.5C 296.756,294.066 295.423,299.733 294.5,305.5C 293.596,306.209 293.263,307.209 293.5,308.5C 284.75,309.292 278.083,313.292 273.5,320.5C 266.159,320.666 258.826,320.5 251.5,320C 246.017,318.046 240.351,317.046 234.5,317C 233.79,314.456 232.124,313.289 229.5,313.5C 218.467,317.135 207.133,317.468 195.5,314.5C 192.173,315.224 188.839,315.39 185.5,315C 184.635,312.354 182.968,310.52 180.5,309.5C 172.275,300.073 162.275,297.906 150.5,303C 141.046,309.437 137.879,318.27 141,329.5C 148.393,345.267 159.893,348.933 175.5,340.5C 178.022,337.812 180.356,334.979 182.5,332C 184.81,331.503 187.143,331.337 189.5,331.5C 216.816,333.432 244.149,335.099 271.5,336.5C 276.754,349.866 286.421,355.033 300.5,352C 304.34,350.582 307.674,348.415 310.5,345.5C 312.304,348.369 312.638,351.369 311.5,354.5C 314.086,355.48 316.753,355.813 319.5,355.5C 319.335,358.85 319.502,362.183 320,365.5C 320.383,366.056 320.883,366.389 321.5,366.5C 321.5,366.833 321.5,367.167 321.5,367.5C 320.833,367.5 320.5,367.833 320.5,368.5C 319.508,368.328 318.842,368.662 318.5,369.5C 317.833,369.5 317.5,369.833 317.5,370.5C 316.508,370.328 315.842,370.662 315.5,371.5C 314.833,371.5 314.5,371.833 314.5,372.5C 313.508,372.328 312.842,372.662 312.5,373.5C 311.508,373.328 310.842,373.662 310.5,374.5C 309.508,374.328 308.842,374.662 308.5,375.5C 307.833,375.5 307.5,375.833 307.5,376.5C 306.508,376.328 305.842,376.662 305.5,377.5C 304.508,377.328 303.842,377.662 303.5,378.5C 302.508,378.328 301.842,378.662 301.5,379.5C 300.508,379.328 299.842,379.662 299.5,380.5C 298.508,380.328 297.842,380.662 297.5,381.5C 295.447,381.402 293.78,382.069 292.5,383.5C 291.508,383.328 290.842,383.662 290.5,384.5C 288.447,384.402 286.78,385.069 285.5,386.5C 284.209,386.263 283.209,386.596 282.5,387.5C 281.209,387.263 280.209,387.596 279.5,388.5C 278.209,388.263 277.209,388.596 276.5,389.5C 275.209,389.263 274.209,389.596 273.5,390.5C 270.848,390.41 268.515,391.076 266.5,392.5C 261.256,392.882 256.256,393.882 251.5,395.5C 236.162,397.085 220.828,397.418 205.5,396.5C 201.382,395.291 197.049,394.624 192.5,394.5C 191.081,393.549 189.415,393.216 187.5,393.5C 183.761,391.898 179.761,390.898 175.5,390.5C 173.786,389.262 171.786,388.595 169.5,388.5C 168.791,387.596 167.791,387.263 166.5,387.5C 165.22,386.069 163.553,385.402 161.5,385.5C 160.22,384.069 158.553,383.402 156.5,383.5C 153.485,381.326 150.151,379.659 146.5,378.5C 143.001,376.25 139.335,374.25 135.5,372.5C 130.68,368.922 125.68,365.588 120.5,362.5C 107.463,351.797 95.7966,339.797 85.5,326.5C 84.9744,324.77 83.9744,323.436 82.5,322.5C 80.7349,319.291 78.7349,316.291 76.5,313.5C 73.7511,307.667 70.7511,302.001 67.5,296.5C 67.6716,295.508 67.3382,294.842 66.5,294.5C 66.5979,292.447 65.9313,290.78 64.5,289.5C 64.5979,287.447 63.9313,285.78 62.5,284.5C 61.2036,278.95 59.537,273.617 57.5,268.5C 57.4349,265.572 56.7682,262.905 55.5,260.5C 55.4613,256.267 54.7947,252.267 53.5,248.5C 53.81,245.287 53.4767,242.287 52.5,239.5C 52.2028,224.449 52.8695,209.449 54.5,194.5C 56.1015,190.079 57.1015,185.412 57.5,180.5C 58.9238,178.485 59.5905,176.152 59.5,173.5C 60.404,172.791 60.7373,171.791 60.5,170.5C 61.1667,170.5 61.5,170.167 61.5,169.5 Z"/></g>
<g><path style="opacity:0.012" fill="#e5eaf6" d="M 55.5,181.5 C 56.5735,182.251 56.7401,183.251 56,184.5C 55.5172,183.552 55.3505,182.552 55.5,181.5 Z"/></g>
<g><path style="opacity:0.01" fill="#e2e9f2" d="M 393.5,187.5 C 393.343,186.127 393.51,184.793 394,183.5C 394.765,185.066 394.598,186.399 393.5,187.5 Z"/></g>
<g><path style="opacity:1" fill="#e08d65" d="M 75.5,179.5 C 76.8734,179.343 78.2068,179.51 79.5,180C 83.2348,183.575 87.5681,186.075 92.5,187.5C 93.2975,187.957 93.6309,188.624 93.5,189.5C 86.5991,187.718 80.5991,184.384 75.5,179.5 Z"/></g>
<g><path style="opacity:1" fill="#3b93d7" d="M 169.5,139.5 C 172.385,139.194 175.052,139.527 177.5,140.5C 177.5,141.5 177.5,142.5 177.5,143.5C 172.057,172.286 155.057,190.619 126.5,198.5C 126.167,198.5 125.833,198.5 125.5,198.5C 125.5,195.833 125.5,193.167 125.5,190.5C 125.5,190.167 125.5,189.833 125.5,189.5C 125.833,189.5 126.167,189.5 126.5,189.5C 132.583,189.814 137.583,187.814 141.5,183.5C 141.973,182.094 142.973,181.427 144.5,181.5C 147.427,180.243 149.761,178.243 151.5,175.5C 153.167,174.5 154.5,173.167 155.5,171.5C 157.587,170.415 158.92,168.749 159.5,166.5C 160.758,164.313 161.758,161.98 162.5,159.5C 164.403,156.701 166.069,153.701 167.5,150.5C 168.222,150.082 168.722,149.416 169,148.5C 169.498,145.518 169.665,142.518 169.5,139.5 Z"/></g>
<g><path style="opacity:1" fill="#838697" d="M 141.5,183.5 C 137.583,187.814 132.583,189.814 126.5,189.5C 131.729,188.243 136.729,186.243 141.5,183.5 Z"/></g>
<g><path style="opacity:0.01" fill="#e2e7ef" d="M 394.5,192.5 C 394.343,191.127 394.51,189.793 395,188.5C 395.765,190.066 395.598,191.399 394.5,192.5 Z"/></g>
<g><path style="opacity:1" fill="#db8055" d="M 95.5,190.5 C 95.5,190.167 95.5,189.833 95.5,189.5C 105.5,189.5 115.5,189.5 125.5,189.5C 125.5,189.833 125.5,190.167 125.5,190.5C 125.167,190.5 124.833,190.5 124.5,190.5C 124.167,190.5 123.833,190.5 123.5,190.5C 116.869,191.331 110.202,191.664 103.5,191.5C 100.833,191.167 98.1667,190.833 95.5,190.5 Z"/></g>
<g><path style="opacity:0.01" fill="#e0e6f3" d="M 54.5,194.5 C 53.3871,193.054 53.2204,191.387 54,189.5C 54.4935,191.134 54.6602,192.801 54.5,194.5 Z"/></g>
<g><path style="opacity:1" fill="#efe6e9" d="M 95.5,190.5 C 98.1667,190.833 100.833,191.167 103.5,191.5C 109.653,192.653 115.986,192.82 122.5,192C 123.056,191.617 123.389,191.117 123.5,190.5C 123.833,190.5 124.167,190.5 124.5,190.5C 124.461,191.583 124.127,192.583 123.5,193.5C 115.521,194.665 107.521,194.832 99.5,194C 97.6813,193.26 96.3479,192.093 95.5,190.5 Z"/></g>
<g><path style="opacity:1" fill="#e4b3a0" d="M 123.5,190.5 C 123.389,191.117 123.056,191.617 122.5,192C 115.986,192.82 109.653,192.653 103.5,191.5C 110.202,191.664 116.869,191.331 123.5,190.5 Z"/></g>
<g><path style="opacity:0.011" fill="#e4e6f7" d="M 395.5,193.5 C 396.598,194.601 396.765,195.934 396,197.5C 395.51,196.207 395.343,194.873 395.5,193.5 Z"/></g>
<g><path style="opacity:0.009" fill="#e2e7f3" d="M 52.5,195.5 C 53.6129,196.946 53.7796,198.613 53,200.5C 52.5065,198.866 52.3398,197.199 52.5,195.5 Z"/></g>
<g><path style="opacity:0.01" fill="#e1e8f1" d="M 396.5,205.5 C 396.337,203.143 396.503,200.81 397,198.5C 397.796,201.039 397.629,203.372 396.5,205.5 Z"/></g>
<g><path style="opacity:0.01" fill="#e4e9f2" d="M 51.5,201.5 C 52.6341,203.966 52.8007,206.633 52,209.5C 51.5026,206.854 51.3359,204.187 51.5,201.5 Z"/></g>
<g><path style="opacity:0.009" fill="#e2e7f7" d="M 397.5,206.5 C 398.648,210.981 398.815,215.648 398,220.5C 397.501,215.845 397.334,211.179 397.5,206.5 Z"/></g>
<g><path style="opacity:0.011" fill="#e4eaf6" d="M 50.5,211.5 C 51.6573,220.324 51.824,229.324 51,238.5C 50.5002,229.506 50.3336,220.506 50.5,211.5 Z"/></g>
<g><path style="opacity:1" fill="#6db9ec" d="M 125.5,198.5 C 125.833,198.5 126.167,198.5 126.5,198.5C 127.266,202.832 128.1,207.166 129,211.5C 130.351,213.019 131.851,214.352 133.5,215.5C 135.454,219.526 134.454,222.193 130.5,223.5C 130.821,228.695 130.487,233.695 129.5,238.5C 128.833,232.167 128.167,225.833 127.5,219.5C 126.325,219.719 125.325,219.386 124.5,218.5C 125.663,216.715 126.33,214.715 126.5,212.5C 125.872,207.851 125.539,203.184 125.5,198.5 Z"/></g>
<g><path style="opacity:1" fill="#3595db" d="M 277.5,187.5 C 272.035,206.694 267.201,226.028 263,245.5C 261.629,250.664 258.463,253.997 253.5,255.5C 250.786,255.06 248.62,253.726 247,251.5C 246.333,247.833 246.333,244.167 247,240.5C 251.418,221.262 256.251,202.262 261.5,183.5C 261.369,184.239 261.536,184.906 262,185.5C 264.161,181.876 267.328,180.709 271.5,182C 273.416,184.09 275.416,185.923 277.5,187.5 Z"/></g>
<g><path style="opacity:0.011" fill="#e2e7f6" d="M 397.5,228.5 C 398.648,232.981 398.815,237.648 398,242.5C 397.501,237.845 397.334,233.179 397.5,228.5 Z"/></g>
<g><path style="opacity:0.009" fill="#e5e9f4" d="M 52.5,239.5 C 52.6641,242.187 52.4974,244.854 52,247.5C 51.1993,244.633 51.3659,241.966 52.5,239.5 Z"/></g>
<g><path style="opacity:0.012" fill="#e1e9f1" d="M 396.5,244.5 C 397.622,246.288 397.789,248.288 397,250.5C 396.505,248.527 396.338,246.527 396.5,244.5 Z"/></g>
<g><path style="opacity:0.011" fill="#e4e8f4" d="M 53.5,248.5 C 53.6621,250.527 53.4955,252.527 53,254.5C 52.2109,252.288 52.3775,250.288 53.5,248.5 Z"/></g>
<g><path style="opacity:0.009" fill="#e4eaf8" d="M 395.5,251.5 C 396.613,252.946 396.78,254.613 396,256.5C 395.506,254.866 395.34,253.199 395.5,251.5 Z"/></g>
<g><path style="opacity:1" fill="#c7e8fd" d="M 332.5,224.5 C 331.975,229.011 331.308,233.511 330.5,238C 330.706,239.366 331.04,240.699 331.5,242C 330.258,243.651 329.424,245.485 329,247.5C 328.667,246.833 328.333,246.167 328,245.5C 325.845,254.124 324.011,262.791 322.5,271.5C 322.257,273.922 323.257,275.588 325.5,276.5C 323.645,278.013 321.645,279.346 319.5,280.5C 320.471,273.478 321.637,266.478 323,259.5C 325.722,247.601 328.889,235.934 332.5,224.5 Z"/></g>
<g><path style="opacity:0.012" fill="#e2e9f4" d="M 53.5,255.5 C 54.5983,256.601 54.765,257.934 54,259.5C 53.51,258.207 53.3433,256.873 53.5,255.5 Z"/></g>
<g><path style="opacity:0.011" fill="#e2e8f8" d="M 394.5,257.5 C 395.598,258.601 395.765,259.934 395,261.5C 394.51,260.207 394.343,258.873 394.5,257.5 Z"/></g>
<g><path style="opacity:0.01" fill="#e1eaf2" d="M 55.5,260.5 C 55.6495,261.552 55.4828,262.552 55,263.5C 54.2599,262.251 54.4265,261.251 55.5,260.5 Z"/></g>
<g><path style="opacity:0.01" fill="#e1e9f1" d="M 393.5,262.5 C 394.573,263.251 394.74,264.251 394,265.5C 393.517,264.552 393.351,263.552 393.5,262.5 Z"/></g>
<g><path style="opacity:0.012" fill="#e0e9f0" d="M 392.5,266.5 C 393.573,267.251 393.74,268.251 393,269.5C 392.517,268.552 392.351,267.552 392.5,266.5 Z"/></g>
<g><path style="opacity:0.009" fill="#e4ebf6" d="M 57.5,268.5 C 57.6495,269.552 57.4828,270.552 57,271.5C 56.2599,270.251 56.4265,269.251 57.5,268.5 Z"/></g>
<g><path style="opacity:0.009" fill="#e1e8f1" d="M 391.5,273.5 C 391.351,272.448 391.517,271.448 392,270.5C 392.74,271.749 392.573,272.749 391.5,273.5 Z"/></g>
<g><path style="opacity:0.008" fill="#e2e9f2" d="M 390.5,273.5 C 390.833,273.5 391.167,273.5 391.5,273.5C 391.737,274.791 391.404,275.791 390.5,276.5C 390.5,275.5 390.5,274.5 390.5,273.5 Z"/></g>
<g><path style="opacity:0.007" fill="#e4e9f1" d="M 389.5,276.5 C 389.833,276.5 390.167,276.5 390.5,276.5C 390.737,277.791 390.404,278.791 389.5,279.5C 389.5,278.5 389.5,277.5 389.5,276.5 Z"/></g>
<g><path style="opacity:0.007" fill="#e2e9ef" d="M 388.5,279.5 C 388.833,279.5 389.167,279.5 389.5,279.5C 389.737,280.791 389.404,281.791 388.5,282.5C 388.5,281.5 388.5,280.5 388.5,279.5 Z"/></g>
<g><path style="opacity:1" fill="#63b3e6" d="M 141.5,275.5 C 166.138,276.785 190.805,278.952 215.5,282C 225.685,282.746 235.852,282.579 246,281.5C 263.45,283.77 280.616,286.104 297.5,288.5C 292.833,288.5 288.167,288.5 283.5,288.5C 261.019,286.343 238.352,284.677 215.5,283.5C 196.885,281.736 178.218,280.569 159.5,280C 154.53,279.114 149.53,278.448 144.5,278C 143.058,277.623 142.058,276.79 141.5,275.5 Z"/></g>
<g><path style="opacity:0.008" fill="#e2e8f1" d="M 387.5,282.5 C 387.833,282.5 388.167,282.5 388.5,282.5C 388.737,283.791 388.404,284.791 387.5,285.5C 387.5,284.5 387.5,283.5 387.5,282.5 Z"/></g>
<g><path style="opacity:0.01" fill="#e3e9f6" d="M 62.5,284.5 C 62.631,285.239 62.4643,285.906 62,286.5C 61.3083,285.563 61.475,284.897 62.5,284.5 Z"/></g>
<g><path style="opacity:0.008" fill="#e1e8f2" d="M 386.5,285.5 C 386.833,285.5 387.167,285.5 387.5,285.5C 387.167,288.167 386.833,288.167 386.5,285.5 Z"/></g>
<g><path style="opacity:1" fill="#cfebfe" d="M 215.5,283.5 C 238.352,284.677 261.019,286.343 283.5,288.5C 273.828,288.666 264.161,288.5 254.5,288C 242.25,286.668 229.917,285.668 217.5,285C 216.584,284.722 215.918,284.222 215.5,283.5 Z"/></g>
<g><path style="opacity:0.004" fill="#e4eaee" d="M 63.5,289.5 C 62.475,289.103 62.3083,288.437 63,287.5C 63.4643,288.094 63.631,288.761 63.5,289.5 Z"/></g>
<g><path style="opacity:0.008" fill="#dfe9f3" d="M 385.5,290.5 C 385.369,289.761 385.536,289.094 386,288.5C 386.692,289.437 386.525,290.103 385.5,290.5 Z"/></g>
<g><path style="opacity:0.01" fill="#e1eaf4" d="M 63.5,289.5 C 63.8333,289.5 64.1667,289.5 64.5,289.5C 64.1667,292.167 63.8333,292.167 63.5,289.5 Z"/></g>
<g><path style="opacity:0.01" fill="#deeaf4" d="M 384.5,290.5 C 384.833,290.5 385.167,290.5 385.5,290.5C 385.672,291.492 385.338,292.158 384.5,292.5C 384.5,291.833 384.5,291.167 384.5,290.5 Z"/></g>
<g><path style="opacity:0.012" fill="#e3e8f8" d="M 64.5,292.5 C 65.8333,293.167 65.8333,293.167 64.5,292.5 Z"/></g>
<g><path style="opacity:0.008" fill="#deebf4" d="M 383.5,292.5 C 383.833,292.5 384.167,292.5 384.5,292.5C 384.167,295.167 383.833,295.167 383.5,292.5 Z"/></g>
<g><path style="opacity:0.004" fill="#e2e9f3" d="M 66.5,294.5 C 66.5,295.167 66.5,295.833 66.5,296.5C 65.1667,295.833 65.1667,295.167 66.5,294.5 Z"/></g>
<g><path style="opacity:0.012" fill="#e1eaf4" d="M 382.5,295.5 C 383.833,296.167 383.833,296.167 382.5,295.5 Z"/></g>
<g><path style="opacity:0.004" fill="#e2eaf3" d="M 66.5,296.5 C 66.8333,296.5 67.1667,296.5 67.5,296.5C 67.1667,299.167 66.8333,299.167 66.5,296.5 Z"/></g>
<g><path style="opacity:0.01" fill="#e5e8f4" d="M 381.5,297.5 C 382.833,298.167 382.833,298.833 381.5,299.5C 381.5,298.833 381.5,298.167 381.5,297.5 Z"/></g>
<g><path style="opacity:1" fill="#3994da" d="M 317.5,283.5 C 314.858,293.403 312.525,303.403 310.5,313.5C 309.778,313.918 309.278,314.584 309,315.5C 305.015,311.423 300.181,309.423 294.5,309.5C 294.5,308.167 294.5,306.833 294.5,305.5C 295.423,299.733 296.756,294.066 298.5,288.5C 306.404,289.744 312.571,287.078 317,280.5C 317.483,281.448 317.649,282.448 317.5,283.5 Z"/></g>
<g><path style="opacity:0.01" fill="#e3e9f2" d="M 380.5,299.5 C 380.833,299.5 381.167,299.5 381.5,299.5C 381.672,300.492 381.338,301.158 380.5,301.5C 380.5,300.833 380.5,300.167 380.5,299.5 Z"/></g>
<g><path style="opacity:0.01" fill="#e3eaf0" d="M 379.5,301.5 C 379.833,301.5 380.167,301.5 380.5,301.5C 380.672,302.492 380.338,303.158 379.5,303.5C 379.5,302.833 379.5,302.167 379.5,301.5 Z"/></g>
<g><path style="opacity:0.01" fill="#e3e9f2" d="M 378.5,303.5 C 378.833,303.5 379.167,303.5 379.5,303.5C 379.672,304.492 379.338,305.158 378.5,305.5C 378.5,304.833 378.5,304.167 378.5,303.5 Z"/></g>
<g><path style="opacity:0.016" fill="#e1eaf4" d="M 377.5,305.5 C 377.833,305.5 378.167,305.5 378.5,305.5C 378.315,306.17 377.981,306.17 377.5,305.5 Z"/></g>
<g><path style="opacity:0.012" fill="#e1ecf5" d="M 376.5,307.5 C 377.833,308.167 377.833,308.167 376.5,307.5 Z"/></g>
<g><path style="opacity:0.006" fill="#e2ebf7" d="M 375.5,308.5 C 375.833,308.5 376.167,308.5 376.5,308.5C 376.672,309.492 376.338,310.158 375.5,310.5C 375.5,309.833 375.5,309.167 375.5,308.5 Z"/></g>
<g><path style="opacity:0.004" fill="#e1ebf4" d="M 374.5,310.5 C 374.833,310.5 375.167,310.5 375.5,310.5C 375.672,311.492 375.338,312.158 374.5,312.5C 374.5,311.833 374.5,311.167 374.5,310.5 Z"/></g>
<g><path style="opacity:0.016" fill="#dfeaf1" d="M 373.5,312.5 C 373.833,312.5 374.167,312.5 374.5,312.5C 374.315,313.17 373.981,313.17 373.5,312.5 Z"/></g>
<g><path style="opacity:0.016" fill="#e4eaf5" d="M 76.5,313.5 C 75.8333,314.167 75.8333,314.167 76.5,313.5 Z"/></g>
<g><path style="opacity:0.012" fill="#e0e9ef" d="M 372.5,314.5 C 373.833,315.167 373.833,315.167 372.5,314.5 Z"/></g>
<g><path style="opacity:0.012" fill="#e4e9f9" d="M 76.5,315.5 C 77.8333,316.167 77.8333,316.167 76.5,315.5 Z"/></g>
<g><path style="opacity:1" fill="#cde9fd" d="M 180.5,309.5 C 182.968,310.52 184.635,312.354 185.5,315C 188.839,315.39 192.173,315.224 195.5,314.5C 207.133,317.468 218.467,317.135 229.5,313.5C 232.124,313.289 233.79,314.456 234.5,317C 240.351,317.046 246.017,318.046 251.5,320C 258.826,320.5 266.159,320.666 273.5,320.5C 273.167,321.5 272.5,322.167 271.5,322.5C 271.167,322.5 270.833,322.5 270.5,322.5C 251.119,321.36 231.786,320.027 212.5,318.5C 206.862,317.78 201.196,317.447 195.5,317.5C 191.688,316.676 187.688,316.176 183.5,316C 182.594,313.779 181.594,311.612 180.5,309.5 Z"/></g>
<g><path style="opacity:0.008" fill="#e2e9ef" d="M 371.5,315.5 C 371.833,315.5 372.167,315.5 372.5,315.5C 372.672,316.492 372.338,317.158 371.5,317.5C 371.5,316.833 371.5,316.167 371.5,315.5 Z"/></g>
<g><path style="opacity:0.016" fill="#e0e9f1" d="M 370.5,317.5 C 370.833,317.5 371.167,317.5 371.5,317.5C 371.315,318.17 370.981,318.17 370.5,317.5 Z"/></g>
<g><path style="opacity:1" fill="#3694db" d="M 195.5,317.5 C 201.196,317.447 206.862,317.78 212.5,318.5C 216.204,320.091 220.204,320.924 224.5,321C 225.288,323.785 227.121,324.951 230,324.5C 240.412,322.507 250.912,322.007 261.5,323C 264.66,324.734 267.66,324.567 270.5,322.5C 270.833,322.5 271.167,322.5 271.5,322.5C 271.5,326.5 271.5,330.5 271.5,334.5C 244.156,333.165 216.823,331.832 189.5,330.5C 187.143,330.663 184.81,330.497 182.5,330C 184.389,326.164 185.055,321.997 184.5,317.5C 188.167,317.5 191.833,317.5 195.5,317.5 Z"/></g>
<g><path style="opacity:0.008" fill="#e1e9f2" d="M 369.5,318.5 C 369.833,318.5 370.167,318.5 370.5,318.5C 370.672,319.492 370.338,320.158 369.5,320.5C 369.5,319.833 369.5,319.167 369.5,318.5 Z"/></g>
<g><path style="opacity:0.016" fill="#e1eaf4" d="M 368.5,320.5 C 368.833,320.5 369.167,320.5 369.5,320.5C 369.315,321.17 368.981,321.17 368.5,320.5 Z"/></g>
<g><path style="opacity:1" fill="#4c93cb" d="M 212.5,318.5 C 231.786,320.027 251.119,321.36 270.5,322.5C 267.66,324.567 264.66,324.734 261.5,323C 250.912,322.007 240.412,322.507 230,324.5C 227.121,324.951 225.288,323.785 224.5,321C 220.204,320.924 216.204,320.091 212.5,318.5 Z"/></g>
<g><path style="opacity:0.008" fill="#e1e9f6" d="M 367.5,321.5 C 367.833,321.5 368.167,321.5 368.5,321.5C 368.672,322.492 368.338,323.158 367.5,323.5C 367.5,322.833 367.5,322.167 367.5,321.5 Z"/></g>
<g><path style="opacity:0.016" fill="#e1eaf2" d="M 82.5,322.5 C 81.8333,323.167 81.8333,323.167 82.5,322.5 Z"/></g>
<g><path style="opacity:0.012" fill="#e3e8f8" d="M 366.5,323.5 C 366.833,323.5 367.167,323.5 367.5,323.5C 367.315,324.17 366.981,324.17 366.5,323.5 Z"/></g>
<g><path style="opacity:0.012" fill="#e3e9f2" d="M 82.5,324.5 C 83.8333,325.167 83.8333,325.167 82.5,324.5 Z"/></g>
<g><path style="opacity:0.016" fill="#e3e8f8" d="M 365.5,324.5 C 365.833,324.5 366.167,324.5 366.5,324.5C 366.315,325.17 365.981,325.17 365.5,324.5 Z"/></g>
<g><path style="opacity:0.008" fill="#e3e9f6" d="M 364.5,326.5 C 365.833,327.167 365.833,327.167 364.5,326.5 Z"/></g>
<g><path style="opacity:0.004" fill="#e3e7f5" d="M 85.5,326.5 C 85.631,327.239 85.4643,327.906 85,328.5C 84.3083,327.563 84.475,326.897 85.5,326.5 Z"/></g>
<g><path style="opacity:0.016" fill="#e4eaf7" d="M 363.5,327.5 C 363.833,327.5 364.167,327.5 364.5,327.5C 364.315,328.17 363.981,328.17 363.5,327.5 Z"/></g>
<g><path style="opacity:0.012" fill="#dde3f0" d="M 362.5,328.5 C 362.833,328.5 363.167,328.5 363.5,328.5C 363.315,329.17 362.981,329.17 362.5,328.5 Z"/></g>
<g><path style="opacity:0.008" fill="#e0e5f0" d="M 361.5,330.5 C 362.833,331.167 362.833,331.167 361.5,330.5 Z"/></g>
<g><path style="opacity:0.016" fill="#e3ebf5" d="M 360.5,331.5 C 360.833,331.5 361.167,331.5 361.5,331.5C 361.315,332.17 360.981,332.17 360.5,331.5 Z"/></g>
<g><path style="opacity:0.016" fill="#e3ebf5" d="M 359.5,332.5 C 359.833,332.5 360.167,332.5 360.5,332.5C 360.315,333.17 359.981,333.17 359.5,332.5 Z"/></g>
<g><path style="opacity:1" fill="#58b4ed" d="M 180.5,309.5 C 181.594,311.612 182.594,313.779 183.5,316C 187.688,316.176 191.688,316.676 195.5,317.5C 191.833,317.5 188.167,317.5 184.5,317.5C 185.055,321.997 184.389,326.164 182.5,330C 184.81,330.497 187.143,330.663 189.5,330.5C 189.5,330.833 189.5,331.167 189.5,331.5C 187.143,331.337 184.81,331.503 182.5,332C 180.356,334.979 178.022,337.812 175.5,340.5C 159.893,348.933 148.393,345.267 141,329.5C 137.879,318.27 141.046,309.437 150.5,303C 162.275,297.906 172.275,300.073 180.5,309.5 Z"/></g>
<g><path style="opacity:1" fill="#f8fdfd" d="M 156.5,310.5 C 168.717,308.481 174.551,313.481 174,325.5C 171.356,332.833 166.189,335.666 158.5,334C 151.586,330.663 149.086,325.163 151,317.5C 152.666,315.004 154.5,312.671 156.5,310.5 Z"/></g>
<g><path style="opacity:1" fill="#4d96d0" d="M 189.5,331.5 C 189.5,331.167 189.5,330.833 189.5,330.5C 216.823,331.832 244.156,333.165 271.5,334.5C 271.5,335.167 271.5,335.833 271.5,336.5C 244.149,335.099 216.816,333.432 189.5,331.5 Z"/></g>
<g><path style="opacity:0.016" fill="#e0e9f3" d="M 355.5,337.5 C 356.833,338.167 356.833,338.167 355.5,337.5 Z"/></g>
<g><path style="opacity:0.016" fill="#e0e8f5" d="M 354.5,338.5 C 354.833,338.5 355.167,338.5 355.5,338.5C 355.315,339.17 354.981,339.17 354.5,338.5 Z"/></g>
<g><path style="opacity:0.016" fill="#e2e8f3" d="M 353.5,339.5 C 353.833,339.5 354.167,339.5 354.5,339.5C 354.315,340.17 353.981,340.17 353.5,339.5 Z"/></g>
<g><path style="opacity:0.012" fill="#e2e8f3" d="M 352.5,340.5 C 352.833,340.5 353.167,340.5 353.5,340.5C 353.315,341.17 352.981,341.17 352.5,340.5 Z"/></g>
<g><path style="opacity:0.008" fill="#e2e8f1" d="M 351.5,341.5 C 351.833,341.5 352.167,341.5 352.5,341.5C 352.315,342.17 351.981,342.17 351.5,341.5 Z"/></g>
<g><path style="opacity:1" fill="#57b3ee" d="M 294.5,305.5 C 294.5,306.833 294.5,308.167 294.5,309.5C 300.181,309.423 305.015,311.423 309,315.5C 309.278,314.584 309.778,313.918 310.5,313.5C 311.673,317.533 313.173,321.533 315,325.5C 316.56,332.92 315.06,339.587 310.5,345.5C 307.674,348.415 304.34,350.582 300.5,352C 286.421,355.033 276.754,349.866 271.5,336.5C 271.5,335.833 271.5,335.167 271.5,334.5C 271.5,330.5 271.5,326.5 271.5,322.5C 272.5,322.167 273.167,321.5 273.5,320.5C 278.083,313.292 284.75,309.292 293.5,308.5C 293.263,307.209 293.596,306.209 294.5,305.5 Z"/></g>
<g><path style="opacity:1" fill="#f8fefd" d="M 289.5,319.5 C 301.207,318.613 306.374,323.946 305,335.5C 300.913,342.417 295.08,344.584 287.5,342C 285,340.833 283.167,339 282,336.5C 279.362,328.224 281.862,322.557 289.5,319.5 Z"/></g>
<g><path style="opacity:0.004" fill="#e4e8fa" d="M 350.5,342.5 C 350.833,342.5 351.167,342.5 351.5,342.5C 350.968,345.46 350.301,345.793 349.5,343.5C 350.167,343.5 350.5,343.167 350.5,342.5 Z"/></g>
<g><path style="opacity:0.004" fill="#e4e8fa" d="M 343.5,349.5 C 345.793,350.301 345.46,350.968 342.5,351.5C 342.5,351.167 342.5,350.833 342.5,350.5C 343.167,350.5 343.5,350.167 343.5,349.5 Z"/></g>
<g><path style="opacity:0.008" fill="#e4eaf5" d="M 341.5,351.5 C 341.833,351.5 342.167,351.5 342.5,351.5C 342.315,352.17 341.981,352.17 341.5,351.5 Z"/></g>
<g><path style="opacity:0.012" fill="#e4eaf5" d="M 340.5,352.5 C 340.833,352.5 341.167,352.5 341.5,352.5C 341.315,353.17 340.981,353.17 340.5,352.5 Z"/></g>
<g><path style="opacity:0.016" fill="#e4eaf5" d="M 339.5,353.5 C 339.833,353.5 340.167,353.5 340.5,353.5C 340.315,354.17 339.981,354.17 339.5,353.5 Z"/></g>
<g><path style="opacity:0.016" fill="#e1e9f6" d="M 338.5,354.5 C 338.833,354.5 339.167,354.5 339.5,354.5C 339.315,355.17 338.981,355.17 338.5,354.5 Z"/></g>
<g><path style="opacity:0.016" fill="#dfe9f3" d="M 337.5,355.5 C 337.833,355.5 338.167,355.5 338.5,355.5C 338.315,356.17 337.981,356.17 337.5,355.5 Z"/></g>
<g><path style="opacity:0.016" fill="#e1ecf5" d="M 332.5,359.5 C 333.833,360.167 333.833,360.167 332.5,359.5 Z"/></g>
<g><path style="opacity:0.016" fill="#e3ebf5" d="M 331.5,360.5 C 331.833,360.5 332.167,360.5 332.5,360.5C 332.315,361.17 331.981,361.17 331.5,360.5 Z"/></g>
<g><path style="opacity:0.008" fill="#e1e7f2" d="M 331.5,361.5 C 330.833,362.167 330.833,362.167 331.5,361.5 Z"/></g>
<g><path style="opacity:0.016" fill="#e9eefe" d="M 120.5,362.5 C 120.5,362.833 120.5,363.167 120.5,363.5C 119.83,363.019 119.83,362.685 120.5,362.5 Z"/></g>
<g><path style="opacity:0.012" fill="#e5e8f4" d="M 328.5,362.5 C 329.833,363.167 329.833,363.167 328.5,362.5 Z"/></g>
<g><path style="opacity:0.008" fill="#e2e7f5" d="M 120.5,363.5 C 121.833,364.167 121.833,364.167 120.5,363.5 Z"/></g>
<g><path style="opacity:0.016" fill="#e6e9f5" d="M 327.5,363.5 C 327.833,363.5 328.167,363.5 328.5,363.5C 328.315,364.17 327.981,364.17 327.5,363.5 Z"/></g>
<g><path style="opacity:0.008" fill="#e3e9f4" d="M 327.5,364.5 C 326.833,365.167 326.833,365.167 327.5,364.5 Z"/></g>
<g><path style="opacity:0.016" fill="#e1eaf4" d="M 324.5,365.5 C 325.833,366.167 325.833,366.167 324.5,365.5 Z"/></g>
<g><path style="opacity:0.012" fill="#e1eaf4" d="M 323.5,366.5 C 323.833,366.5 324.167,366.5 324.5,366.5C 324.315,367.17 323.981,367.17 323.5,366.5 Z"/></g>
<g><path style="opacity:0.008" fill="#e1e6f4" d="M 321.5,368.5 C 321.5,368.167 321.5,367.833 321.5,367.5C 322.167,367.5 322.833,367.5 323.5,367.5C 323.158,368.338 322.492,368.672 321.5,368.5 Z"/></g>
<g><path style="opacity:0.016" fill="#e1e6f4" d="M 320.5,368.5 C 320.833,368.5 321.167,368.5 321.5,368.5C 321.315,369.17 320.981,369.17 320.5,368.5 Z"/></g>
<g><path style="opacity:0.004" fill="#e2e6f6" d="M 318.5,370.5 C 318.5,370.167 318.5,369.833 318.5,369.5C 319.167,369.5 319.833,369.5 320.5,369.5C 320.158,370.338 319.492,370.672 318.5,370.5 Z"/></g>
<g><path style="opacity:0.016" fill="#e5ebfa" d="M 317.5,370.5 C 317.833,370.5 318.167,370.5 318.5,370.5C 318.315,371.17 317.981,371.17 317.5,370.5 Z"/></g>
<g><path style="opacity:0.008" fill="#e3e9f6" d="M 315.5,372.5 C 315.5,372.167 315.5,371.833 315.5,371.5C 316.167,371.5 316.833,371.5 317.5,371.5C 317.158,372.338 316.492,372.672 315.5,372.5 Z"/></g>
<g><path style="opacity:0.012" fill="#e4ebf3" d="M 135.5,372.5 C 135.5,372.833 135.5,373.167 135.5,373.5C 132.833,373.167 132.833,372.833 135.5,372.5 Z"/></g>
<g><path style="opacity:0.012" fill="#e2e7f5" d="M 314.5,372.5 C 314.833,372.5 315.167,372.5 315.5,372.5C 315.315,373.17 314.981,373.17 314.5,372.5 Z"/></g>
<g><path style="opacity:0.012" fill="#e3ebf7" d="M 135.5,373.5 C 136.833,374.167 136.833,374.167 135.5,373.5 Z"/></g>
<g><path style="opacity:0.016" fill="#e0e9f3" d="M 312.5,373.5 C 313.833,374.167 313.833,374.167 312.5,373.5 Z"/></g>
<g><path style="opacity:0.004" fill="#e1eaf6" d="M 310.5,375.5 C 310.5,375.167 310.5,374.833 310.5,374.5C 311.167,374.5 311.833,374.5 312.5,374.5C 312.158,375.338 311.492,375.672 310.5,375.5 Z"/></g>
<g><path style="opacity:0.006" fill="#e2ebf7" d="M 308.5,376.5 C 308.5,376.167 308.5,375.833 308.5,375.5C 309.167,375.5 309.833,375.5 310.5,375.5C 310.158,376.338 309.492,376.672 308.5,376.5 Z"/></g>
<g><path style="opacity:0.012" fill="#e1ebf7" d="M 307.5,376.5 C 307.833,376.5 308.167,376.5 308.5,376.5C 308.315,377.17 307.981,377.17 307.5,376.5 Z"/></g>
<g><path style="opacity:0.016" fill="#e1eaf4" d="M 305.5,377.5 C 306.833,378.167 306.833,378.167 305.5,377.5 Z"/></g>
<g><path style="opacity:0.008" fill="#dee5ed" d="M 146.5,378.5 C 146.5,378.833 146.5,379.167 146.5,379.5C 143.833,379.167 143.833,378.833 146.5,378.5 Z"/></g>
<g><path style="opacity:0.01" fill="#e1eaf4" d="M 303.5,379.5 C 303.5,379.167 303.5,378.833 303.5,378.5C 304.167,378.5 304.833,378.5 305.5,378.5C 305.158,379.338 304.492,379.672 303.5,379.5 Z"/></g>
<g><path style="opacity:0.012" fill="#e3e9f2" d="M 146.5,379.5 C 147.833,380.167 147.833,380.167 146.5,379.5 Z"/></g>
<g><path style="opacity:0.01" fill="#e2e8f1" d="M 301.5,380.5 C 301.5,380.167 301.5,379.833 301.5,379.5C 302.167,379.5 302.833,379.5 303.5,379.5C 303.158,380.338 302.492,380.672 301.5,380.5 Z"/></g>
<g><path style="opacity:0.012" fill="#e1ebf0" d="M 148.5,380.5 C 149.833,381.167 149.833,381.167 148.5,380.5 Z"/></g>
<g><path style="opacity:0.01" fill="#e0e9f1" d="M 299.5,381.5 C 299.5,381.167 299.5,380.833 299.5,380.5C 300.167,380.5 300.833,380.5 301.5,380.5C 301.158,381.338 300.492,381.672 299.5,381.5 Z"/></g>
<g><path style="opacity:0.004" fill="#e1e8f2" d="M 297.5,381.5 C 298.167,381.5 298.833,381.5 299.5,381.5C 298.833,382.833 298.167,382.833 297.5,381.5 Z"/></g>
<g><path style="opacity:0.012" fill="#e0e8f5" d="M 295.5,382.5 C 296.833,383.167 296.833,383.167 295.5,382.5 Z"/></g>
<g><path style="opacity:0.01" fill="#e1e8f7" d="M 156.5,383.5 C 156.5,383.833 156.5,384.167 156.5,384.5C 153.833,384.167 153.833,383.833 156.5,383.5 Z"/></g>
<g><path style="opacity:0.008" fill="#dce9f4" d="M 292.5,384.5 C 292.5,384.167 292.5,383.833 292.5,383.5C 295.167,383.833 295.167,384.167 292.5,384.5 Z"/></g>
<g><path style="opacity:0.01" fill="#e0e8f5" d="M 156.5,384.5 C 157.239,384.369 157.906,384.536 158.5,385C 157.563,385.692 156.897,385.525 156.5,384.5 Z"/></g>
<g><path style="opacity:0.01" fill="#ddeaf5" d="M 290.5,385.5 C 290.5,385.167 290.5,384.833 290.5,384.5C 291.167,384.5 291.833,384.5 292.5,384.5C 292.158,385.338 291.492,385.672 290.5,385.5 Z"/></g>
<g><path style="opacity:0.012" fill="#e2e9f6" d="M 161.5,385.5 C 161.5,385.833 161.5,386.167 161.5,386.5C 158.833,386.167 158.833,385.833 161.5,385.5 Z"/></g>
<g><path style="opacity:0.008" fill="#e0eaf6" d="M 290.5,385.5 C 290.103,386.525 289.437,386.692 288.5,386C 289.094,385.536 289.761,385.369 290.5,385.5 Z"/></g>
<g><path style="opacity:0.016" fill="#e4e8f4" d="M 161.5,386.5 C 162.239,386.369 162.906,386.536 163.5,387C 162.563,387.692 161.897,387.525 161.5,386.5 Z"/></g>
<g><path style="opacity:0.01" fill="#e3ebf5" d="M 285.5,387.5 C 285.5,387.167 285.5,386.833 285.5,386.5C 288.167,386.833 288.167,387.167 285.5,387.5 Z"/></g>
<g><path style="opacity:0.01" fill="#e3e9f4" d="M 166.5,387.5 C 166.103,388.525 165.437,388.692 164.5,388C 165.094,387.536 165.761,387.369 166.5,387.5 Z"/></g>
<g><path style="opacity:0.008" fill="#e3e8f2" d="M 282.5,388.5 C 282.5,388.167 282.5,387.833 282.5,387.5C 283.5,387.5 284.5,387.5 285.5,387.5C 284.791,388.404 283.791,388.737 282.5,388.5 Z"/></g>
<g><path style="opacity:0.012" fill="#e2e9f6" d="M 169.5,388.5 C 169.103,389.525 168.437,389.692 167.5,389C 168.094,388.536 168.761,388.369 169.5,388.5 Z"/></g>
<g><path style="opacity:0.007" fill="#e3e8f0" d="M 279.5,389.5 C 279.5,389.167 279.5,388.833 279.5,388.5C 280.5,388.5 281.5,388.5 282.5,388.5C 281.791,389.404 280.791,389.737 279.5,389.5 Z"/></g>
<g><path style="opacity:0.007" fill="#e2e8f0" d="M 276.5,390.5 C 276.5,390.167 276.5,389.833 276.5,389.5C 277.5,389.5 278.5,389.5 279.5,389.5C 278.791,390.404 277.791,390.737 276.5,390.5 Z"/></g>
<g><path style="opacity:0.009" fill="#e2ebf5" d="M 175.5,390.5 C 174.749,391.573 173.749,391.74 172.5,391C 173.448,390.517 174.448,390.351 175.5,390.5 Z"/></g>
<g><path style="opacity:0.008" fill="#e0e9f1" d="M 273.5,391.5 C 273.5,391.167 273.5,390.833 273.5,390.5C 274.5,390.5 275.5,390.5 276.5,390.5C 275.791,391.404 274.791,391.737 273.5,391.5 Z"/></g>
<g><path style="opacity:0.008" fill="#e0e8ef" d="M 273.5,391.5 C 272.749,392.573 271.749,392.74 270.5,392C 271.448,391.517 272.448,391.351 273.5,391.5 Z"/></g>
<g><path style="opacity:0.012" fill="#dfe8ee" d="M 266.5,392.5 C 267.552,392.351 268.552,392.517 269.5,393C 268.251,393.74 267.251,393.573 266.5,392.5 Z"/></g>
<g><path style="opacity:0.01" fill="#e2eaf3" d="M 187.5,393.5 C 186.399,394.598 185.066,394.765 183.5,394C 184.793,393.51 186.127,393.343 187.5,393.5 Z"/></g>
<g><path style="opacity:0.01" fill="#e1e9f0" d="M 262.5,394.5 C 263.251,393.427 264.251,393.26 265.5,394C 264.552,394.483 263.552,394.649 262.5,394.5 Z"/></g>
<g><path style="opacity:0.01" fill="#e0e7ef" d="M 192.5,394.5 C 191.399,395.598 190.066,395.765 188.5,395C 189.793,394.51 191.127,394.343 192.5,394.5 Z"/></g>
<g><path style="opacity:0.014" fill="#e3e9f9" d="M 257.5,395.5 C 258.601,394.402 259.934,394.235 261.5,395C 260.207,395.49 258.873,395.657 257.5,395.5 Z"/></g>
<g><path style="opacity:0.012" fill="#e1e7f7" d="M 193.5,396.5 C 194.601,395.402 195.934,395.235 197.5,396C 196.207,396.49 194.873,396.657 193.5,396.5 Z"/></g>
<g><path style="opacity:0.009" fill="#e4eaf8" d="M 251.5,395.5 C 253.199,395.34 254.866,395.506 256.5,396C 254.613,396.78 252.946,396.613 251.5,395.5 Z"/></g>
<g><path style="opacity:0.01" fill="#e1e8f1" d="M 205.5,396.5 C 203.372,397.629 201.039,397.796 198.5,397C 200.81,396.503 203.143,396.337 205.5,396.5 Z"/></g>
<g><path style="opacity:0.009" fill="#e4eaf7" d="M 244.5,397.5 C 246.288,396.378 248.288,396.211 250.5,397C 248.527,397.495 246.527,397.662 244.5,397.5 Z"/></g>
<g><path style="opacity:0.009" fill="#e2e7f7" d="M 206.5,398.5 C 210.981,397.352 215.648,397.185 220.5,398C 215.845,398.499 211.179,398.666 206.5,398.5 Z"/></g>
<g><path style="opacity:0.009" fill="#e2e7f7" d="M 228.5,398.5 C 232.981,397.352 237.648,397.185 242.5,398C 237.845,398.499 233.179,398.666 228.5,398.5 Z"/></g>
</svg>
