<?xml version="1.0" encoding="UTF-8"?>
<!DOCTYPE svg PUBLIC "-//W3C//DTD SVG 1.1//EN" "http://www.w3.org/Graphics/SVG/1.1/DTD/svg11.dtd">
<svg xmlns="http://www.w3.org/2000/svg" version="1.1" width="128px" height="128px" style="shape-rendering:geometricPrecision; text-rendering:geometricPrecision; image-rendering:optimizeQuality; fill-rule:evenodd; clip-rule:evenodd" xmlns:xlink="http://www.w3.org/1999/xlink">
<g><path style="opacity:0.92" fill="#675170" d="M 50.5,-0.5 C 52.8333,-0.5 55.1667,-0.5 57.5,-0.5C 58.9418,0.819534 59.6085,2.4862 59.5,4.5C 59.6655,8.51383 59.4988,12.5138 59,16.5C 55.1568,20.7287 51.8235,20.3954 49,15.5C 48.5014,11.8484 48.3347,8.18174 48.5,4.5C 48.8925,2.7162 49.5592,1.04953 50.5,-0.5 Z"/></g>
<g><path style="opacity:0.921" fill="#675170" d="M 69.5,-0.5 C 71.8333,-0.5 74.1667,-0.5 76.5,-0.5C 77.4408,1.04953 78.1075,2.7162 78.5,4.5C 78.6653,8.18174 78.4986,11.8484 78,15.5C 75.1765,20.3954 71.8432,20.7287 68,16.5C 67.5012,12.5138 67.3345,8.51383 67.5,4.5C 67.3915,2.4862 68.0582,0.819534 69.5,-0.5 Z"/></g>
<g><path style="opacity:0.992" fill="#dcecfe" d="M 40.5,4.5 C 43.1667,4.5 45.8333,4.5 48.5,4.5C 48.3347,8.18174 48.5014,11.8484 49,15.5C 51.8235,20.3954 55.1568,20.7287 59,16.5C 59.4988,12.5138 59.6655,8.51383 59.5,4.5C 62.1667,4.5 64.8333,4.5 67.5,4.5C 67.3345,8.51383 67.5012,12.5138 68,16.5C 71.8432,20.7287 75.1765,20.3954 78,15.5C 78.4986,11.8484 78.6653,8.18174 78.5,4.5C 81.1667,4.5 83.8333,4.5 86.5,4.5C 86.3345,8.51383 86.5012,12.5138 87,16.5C 89.6612,19.9661 92.6612,20.2994 96,17.5C 96.1753,12.9805 96.6753,8.64721 97.5,4.5C 101.182,4.3347 104.848,4.50137 108.5,5C 109.308,5.30762 109.975,5.80762 110.5,6.5C 111.451,11.7698 111.785,17.1032 111.5,22.5C 106.225,29.4439 100.225,35.7772 93.5,41.5C 80.0102,40.5043 66.3435,40.171 52.5,40.5C 52.5,41.5 52.5,42.5 52.5,43.5C 65.5,43.5 78.5,43.5 91.5,43.5C 90.1667,45.1667 88.8333,46.8333 87.5,48.5C 84.5,51.1667 81.5,53.8333 78.5,56.5C 70.0161,55.507 61.3494,55.1736 52.5,55.5C 52.5,56.5 52.5,57.5 52.5,58.5C 60.5,58.5 68.5,58.5 76.5,58.5C 74.8333,60.5 73.1667,62.5 71.5,64.5C 70.8333,64.5 70.5,64.8333 70.5,65.5C 64.5,65.5 58.5,65.5 52.5,65.5C 52.5,66.5 52.5,67.5 52.5,68.5C 58.1667,68.5 63.8333,68.5 69.5,68.5C 68.7515,70.3325 67.7515,71.9991 66.5,73.5C 65.6948,75.9154 64.6948,78.2487 63.5,80.5C 59.8333,80.5 56.1667,80.5 52.5,80.5C 52.33,81.8221 52.6634,82.9887 53.5,84C 64.8333,84.6667 76.1667,84.6667 87.5,84C 88.3366,82.9887 88.67,81.8221 88.5,80.5C 83.1667,80.5 77.8333,80.5 72.5,80.5C 72.8333,79.8333 73.1667,79.1667 73.5,78.5C 76.4848,77.6743 79.1515,76.341 81.5,74.5C 84.4309,72.9092 87.0976,70.9092 89.5,68.5C 93.8333,68.5 98.1667,68.5 102.5,68.5C 102.5,67.5 102.5,66.5 102.5,65.5C 99.1667,65.5 95.8333,65.5 92.5,65.5C 94.5,63.1667 96.5,60.8333 98.5,58.5C 102.167,54.1667 106.167,50.1667 110.5,46.5C 110.5,66.1667 110.5,85.8333 110.5,105.5C 107.777,110.556 103.777,114.223 98.5,116.5C 83.3424,115.504 68.0091,115.17 52.5,115.5C 52.5,116.5 52.5,117.5 52.5,118.5C 66.8333,118.5 81.1667,118.5 95.5,118.5C 93.572,120.474 91.2387,121.974 88.5,123C 83.746,124.642 79.0793,126.142 74.5,127.5C 67.1667,127.5 59.8333,127.5 52.5,127.5C 46.9612,126.097 41.6278,124.097 36.5,121.5C 43.5778,122.247 46.2445,119.08 44.5,112C 46.0797,104.414 43.0797,101.247 35.5,102.5C 35.5,100.5 35.5,98.5 35.5,96.5C 38.6852,96.9804 41.5185,96.3137 44,94.5C 44.4983,91.1832 44.665,87.8499 44.5,84.5C 45.4756,83.1851 46.4756,81.8518 47.5,80.5C 46.3112,79.5713 44.9778,79.238 43.5,79.5C 43.3893,78.8826 43.056,78.3826 42.5,78C 40.1902,77.5034 37.8568,77.3367 35.5,77.5C 35.5,75.5 35.5,73.5 35.5,71.5C 38.6852,71.9804 41.5185,71.3137 44,69.5C 44.4983,66.1832 44.665,62.8499 44.5,59.5C 45.4756,58.1851 46.4756,56.8518 47.5,55.5C 46.3112,54.5713 44.9778,54.238 43.5,54.5C 43.3893,53.8826 43.056,53.3826 42.5,53C 40.1902,52.5034 37.8568,52.3367 35.5,52.5C 35.5,50.5 35.5,48.5 35.5,46.5C 38.6852,46.9804 41.5185,46.3137 44,44.5C 44.4983,41.1832 44.665,37.8499 44.5,34.5C 45.4756,33.1851 46.4756,31.8518 47.5,30.5C 46.3112,29.5713 44.9778,29.238 43.5,29.5C 43.3893,28.8826 43.056,28.3826 42.5,28C 40.1902,27.5034 37.8568,27.3367 35.5,27.5C 35.5,24.8333 35.5,22.1667 35.5,19.5C 37.5816,19.3757 39.0816,18.3757 40,16.5C 40.4988,12.5138 40.6655,8.51383 40.5,4.5 Z"/></g>
<g><path style="opacity:1" fill="#d1dbfa" d="M 29.5,4.5 C 30.3247,8.64721 30.8247,12.9805 31,17.5C 32.1096,19.0368 33.6096,19.7035 35.5,19.5C 35.5,22.1667 35.5,24.8333 35.5,27.5C 28.0877,26.4129 24.7543,29.5795 25.5,37C 24.7543,44.4205 28.0877,47.5871 35.5,46.5C 35.5,48.5 35.5,50.5 35.5,52.5C 28.0877,51.4129 24.7543,54.5795 25.5,62C 24.7543,69.4205 28.0877,72.5871 35.5,71.5C 35.5,73.5 35.5,75.5 35.5,77.5C 28.0877,76.4129 24.7543,79.5795 25.5,87C 24.7543,94.4205 28.0877,97.5871 35.5,96.5C 35.5,98.5 35.5,100.5 35.5,102.5C 32.3148,102.02 29.4815,102.686 27,104.5C 26.5014,108.152 26.3347,111.818 26.5,115.5C 21.8333,112.833 18.1667,109.167 15.5,104.5C 15.5,78.8333 15.5,53.1667 15.5,27.5C 15.203,20.4419 15.5363,13.4419 16.5,6.5C 17.0253,5.80762 17.6919,5.30762 18.5,5C 22.1516,4.50137 25.8183,4.3347 29.5,4.5 Z"/></g>
<g><path style="opacity:1" fill="#5d4765" d="M 88.5,-0.5 C 90.8333,-0.5 93.1667,-0.5 95.5,-0.5C 96.1667,1.16667 96.8333,2.83333 97.5,4.5C 96.6753,8.64721 96.1753,12.9805 96,17.5C 92.6612,20.2994 89.6612,19.9661 87,16.5C 86.5012,12.5138 86.3345,8.51383 86.5,4.5C 86.3915,2.4862 87.0582,0.819534 88.5,-0.5 Z"/></g>
<g><path style="opacity:1" fill="#5c4664" d="M 31.5,-0.5 C 33.8333,-0.5 36.1667,-0.5 38.5,-0.5C 39.9418,0.819534 40.6085,2.4862 40.5,4.5C 40.6655,8.51383 40.4988,12.5138 40,16.5C 39.0816,18.3757 37.5816,19.3757 35.5,19.5C 33.6096,19.7035 32.1096,19.0368 31,17.5C 30.8247,12.9805 30.3247,8.64721 29.5,4.5C 30.1667,2.83333 30.8333,1.16667 31.5,-0.5 Z"/></g>
<g><path style="opacity:0.985" fill="#fedd42" d="M 120.5,21.5 C 109.869,32.6318 99.0354,43.6318 88,54.5C 87.5045,52.5273 87.3379,50.5273 87.5,48.5C 88.8333,46.8333 90.1667,45.1667 91.5,43.5C 92.5,43.1667 93.1667,42.5 93.5,41.5C 100.225,35.7772 106.225,29.4439 111.5,22.5C 114.373,20.6453 117.373,20.312 120.5,21.5 Z"/></g>
<g><path style="opacity:0.997" fill="#fec93d" d="M 120.5,21.5 C 121.833,22.1667 122.833,23.1667 123.5,24.5C 113.423,36.0801 102.757,47.2467 91.5,58C 93.8098,58.4966 96.1432,58.6633 98.5,58.5C 96.5,60.8333 94.5,63.1667 92.5,65.5C 91.1667,66.1667 90.1667,67.1667 89.5,68.5C 87.0976,70.9092 84.4309,72.9092 81.5,74.5C 81.6747,72.3792 81.3414,70.3792 80.5,68.5C 84.7019,65.4838 87.8685,61.8172 90,57.5C 89.1627,55.9926 87.9961,55.4926 86.5,56C 83.2956,59.0359 80.2956,62.2026 77.5,65.5C 75.6208,64.6586 73.6208,64.3253 71.5,64.5C 73.1667,62.5 74.8333,60.5 76.5,58.5C 77.5,58.1667 78.1667,57.5 78.5,56.5C 81.5,53.8333 84.5,51.1667 87.5,48.5C 87.3379,50.5273 87.5045,52.5273 88,54.5C 99.0354,43.6318 109.869,32.6318 120.5,21.5 Z"/></g>
<g><path style="opacity:0.963" fill="#fedc40" d="M 123.5,24.5 C 125.326,26.4551 125.826,28.7884 125,31.5C 123.334,33.9957 121.5,36.329 119.5,38.5C 115.9,40.4302 112.9,43.0969 110.5,46.5C 106.167,50.1667 102.167,54.1667 98.5,58.5C 96.1432,58.6633 93.8098,58.4966 91.5,58C 102.757,47.2467 113.423,36.0801 123.5,24.5 Z"/></g>
<g><path style="opacity:1" fill="#c0c9f6" d="M 35.5,27.5 C 37.8568,27.3367 40.1902,27.5034 42.5,28C 43.056,28.3826 43.3893,28.8826 43.5,29.5C 42.8333,30.8333 41.8333,31.8333 40.5,32.5C 37.0381,31.5184 33.3714,31.185 29.5,31.5C 29.5,35.1667 29.5,38.8333 29.5,42.5C 33.5,42.5 37.5,42.5 41.5,42.5C 41.7678,40.901 41.4345,39.5676 40.5,38.5C 41.5,36.8333 42.8333,35.5 44.5,34.5C 44.665,37.8499 44.4983,41.1832 44,44.5C 41.5185,46.3137 38.6852,46.9804 35.5,46.5C 28.0877,47.5871 24.7543,44.4205 25.5,37C 24.7543,29.5795 28.0877,26.4129 35.5,27.5 Z"/></g>
<g><path style="opacity:0.977" fill="#72c3f9" d="M 15.5,27.5 C 15.5,53.1667 15.5,78.8333 15.5,104.5C 3.54061,89.5672 -0.626062,72.5672 3,53.5C 5.34957,43.8053 9.51623,35.1387 15.5,27.5 Z"/></g>
<g><path style="opacity:1" fill="#fd768b" d="M 43.5,29.5 C 44.9778,29.238 46.3112,29.5713 47.5,30.5C 46.4756,31.8518 45.4756,33.1851 44.5,34.5C 42.8333,35.5 41.5,36.8333 40.5,38.5C 39.1851,39.4756 37.8518,40.4756 36.5,41.5C 33.6095,39.9571 31.9429,37.6238 31.5,34.5C 33.4835,34.3832 35.1502,35.0499 36.5,36.5C 38.188,35.4787 39.5213,34.1454 40.5,32.5C 41.8333,31.8333 42.8333,30.8333 43.5,29.5 Z"/></g>
<g><path style="opacity:1" fill="#bec8f7" d="M 52.5,30.5 C 64.5,30.5 76.5,30.5 88.5,30.5C 88.5,31.5 88.5,32.5 88.5,33.5C 76.5,33.5 64.5,33.5 52.5,33.5C 52.5,32.5 52.5,31.5 52.5,30.5 Z"/></g>
<g><path style="opacity:1" fill="#d7dcf7" d="M 40.5,32.5 C 39.5213,34.1454 38.188,35.4787 36.5,36.5C 35.1502,35.0499 33.4835,34.3832 31.5,34.5C 31.9429,37.6238 33.6095,39.9571 36.5,41.5C 37.8518,40.4756 39.1851,39.4756 40.5,38.5C 41.4345,39.5676 41.7678,40.901 41.5,42.5C 37.5,42.5 33.5,42.5 29.5,42.5C 29.5,38.8333 29.5,35.1667 29.5,31.5C 33.3714,31.185 37.0381,31.5184 40.5,32.5 Z"/></g>
<g><path style="opacity:0.98" fill="#78c5f8" d="M 119.5,38.5 C 128.808,60.8022 126.975,82.1355 114,102.5C 112.961,103.71 111.794,104.71 110.5,105.5C 110.5,85.8333 110.5,66.1667 110.5,46.5C 112.9,43.0969 115.9,40.4302 119.5,38.5 Z"/></g>
<g><path style="opacity:1" fill="#bec8f6" d="M 93.5,41.5 C 93.1667,42.5 92.5,43.1667 91.5,43.5C 78.5,43.5 65.5,43.5 52.5,43.5C 52.5,42.5 52.5,41.5 52.5,40.5C 66.3435,40.171 80.0102,40.5043 93.5,41.5 Z"/></g>
<g><path style="opacity:1" fill="#c0c9f6" d="M 35.5,52.5 C 37.8568,52.3367 40.1902,52.5034 42.5,53C 43.056,53.3826 43.3893,53.8826 43.5,54.5C 42.8333,55.8333 41.8333,56.8333 40.5,57.5C 37.0381,56.5184 33.3714,56.185 29.5,56.5C 29.5,60.1667 29.5,63.8333 29.5,67.5C 33.5,67.5 37.5,67.5 41.5,67.5C 41.7678,65.901 41.4345,64.5676 40.5,63.5C 41.5,61.8333 42.8333,60.5 44.5,59.5C 44.665,62.8499 44.4983,66.1832 44,69.5C 41.5185,71.3137 38.6852,71.9804 35.5,71.5C 28.0877,72.5871 24.7543,69.4205 25.5,62C 24.7543,54.5795 28.0877,51.4129 35.5,52.5 Z"/></g>
<g><path style="opacity:1" fill="#fd768b" d="M 43.5,54.5 C 44.9778,54.238 46.3112,54.5713 47.5,55.5C 46.4756,56.8518 45.4756,58.1851 44.5,59.5C 42.8333,60.5 41.5,61.8333 40.5,63.5C 39.1851,64.4756 37.8518,65.4756 36.5,66.5C 33.6095,64.9571 31.9429,62.6238 31.5,59.5C 33.4835,59.3832 35.1502,60.0499 36.5,61.5C 38.188,60.4787 39.5213,59.1454 40.5,57.5C 41.8333,56.8333 42.8333,55.8333 43.5,54.5 Z"/></g>
<g><path style="opacity:1" fill="#bec8f6" d="M 78.5,56.5 C 78.1667,57.5 77.5,58.1667 76.5,58.5C 68.5,58.5 60.5,58.5 52.5,58.5C 52.5,57.5 52.5,56.5 52.5,55.5C 61.3494,55.1736 70.0161,55.507 78.5,56.5 Z"/></g>
<g><path style="opacity:1" fill="#feb333" d="M 80.5,68.5 C 79.6935,67.2719 78.6935,66.2719 77.5,65.5C 80.2956,62.2026 83.2956,59.0359 86.5,56C 87.9961,55.4926 89.1627,55.9926 90,57.5C 87.8685,61.8172 84.7019,65.4838 80.5,68.5 Z"/></g>
<g><path style="opacity:1" fill="#d7dcf7" d="M 40.5,57.5 C 39.5213,59.1454 38.188,60.4787 36.5,61.5C 35.1502,60.0499 33.4835,59.3832 31.5,59.5C 31.9429,62.6238 33.6095,64.9571 36.5,66.5C 37.8518,65.4756 39.1851,64.4756 40.5,63.5C 41.4345,64.5676 41.7678,65.901 41.5,67.5C 37.5,67.5 33.5,67.5 29.5,67.5C 29.5,63.8333 29.5,60.1667 29.5,56.5C 33.3714,56.185 37.0381,56.5184 40.5,57.5 Z"/></g>
<g><path style="opacity:1" fill="#f8b889" d="M 71.5,64.5 C 73.6208,64.3253 75.6208,64.6586 77.5,65.5C 78.6935,66.2719 79.6935,67.2719 80.5,68.5C 81.3414,70.3792 81.6747,72.3792 81.5,74.5C 79.1515,76.341 76.4848,77.6743 73.5,78.5C 72.2804,75.2812 69.9471,73.6146 66.5,73.5C 67.7515,71.9991 68.7515,70.3325 69.5,68.5C 69.5569,67.391 69.8902,66.391 70.5,65.5C 70.5,64.8333 70.8333,64.5 71.5,64.5 Z"/></g>
<g><path style="opacity:1" fill="#bec8f6" d="M 70.5,65.5 C 69.8902,66.391 69.5569,67.391 69.5,68.5C 63.8333,68.5 58.1667,68.5 52.5,68.5C 52.5,67.5 52.5,66.5 52.5,65.5C 58.5,65.5 64.5,65.5 70.5,65.5 Z"/></g>
<g><path style="opacity:1" fill="#bec8f7" d="M 92.5,65.5 C 95.8333,65.5 99.1667,65.5 102.5,65.5C 102.5,66.5 102.5,67.5 102.5,68.5C 98.1667,68.5 93.8333,68.5 89.5,68.5C 90.1667,67.1667 91.1667,66.1667 92.5,65.5 Z"/></g>
<g><path style="opacity:1" fill="#765c79" d="M 66.5,73.5 C 69.9471,73.6146 72.2804,75.2812 73.5,78.5C 73.1667,79.1667 72.8333,79.8333 72.5,80.5C 69.5939,81.7866 66.5939,82.7866 63.5,83.5C 63.5,82.5 63.5,81.5 63.5,80.5C 64.6948,78.2487 65.6948,75.9154 66.5,73.5 Z"/></g>
<g><path style="opacity:1" fill="#c0c9f6" d="M 35.5,77.5 C 37.8568,77.3367 40.1902,77.5034 42.5,78C 43.056,78.3826 43.3893,78.8826 43.5,79.5C 42.8333,80.8333 41.8333,81.8333 40.5,82.5C 37.0381,81.5184 33.3714,81.185 29.5,81.5C 29.5,85.1667 29.5,88.8333 29.5,92.5C 33.5,92.5 37.5,92.5 41.5,92.5C 41.7678,90.901 41.4345,89.5676 40.5,88.5C 41.5,86.8333 42.8333,85.5 44.5,84.5C 44.665,87.8499 44.4983,91.1832 44,94.5C 41.5185,96.3137 38.6852,96.9804 35.5,96.5C 28.0877,97.5871 24.7543,94.4205 25.5,87C 24.7543,79.5795 28.0877,76.4129 35.5,77.5 Z"/></g>
<g><path style="opacity:1" fill="#fd768b" d="M 43.5,79.5 C 44.9778,79.238 46.3112,79.5713 47.5,80.5C 46.4756,81.8518 45.4756,83.1851 44.5,84.5C 42.8333,85.5 41.5,86.8333 40.5,88.5C 39.1851,89.4756 37.8518,90.4756 36.5,91.5C 33.6095,89.9571 31.9429,87.6238 31.5,84.5C 33.4835,84.3832 35.1502,85.0499 36.5,86.5C 38.188,85.4787 39.5213,84.1454 40.5,82.5C 41.8333,81.8333 42.8333,80.8333 43.5,79.5 Z"/></g>
<g><path style="opacity:1" fill="#c6d2f8" d="M 63.5,80.5 C 63.5,81.5 63.5,82.5 63.5,83.5C 66.5939,82.7866 69.5939,81.7866 72.5,80.5C 77.8333,80.5 83.1667,80.5 88.5,80.5C 88.67,81.8221 88.3366,82.9887 87.5,84C 76.1667,84.6667 64.8333,84.6667 53.5,84C 52.6634,82.9887 52.33,81.8221 52.5,80.5C 56.1667,80.5 59.8333,80.5 63.5,80.5 Z"/></g>
<g><path style="opacity:1" fill="#d7dcf7" d="M 40.5,82.5 C 39.5213,84.1454 38.188,85.4787 36.5,86.5C 35.1502,85.0499 33.4835,84.3832 31.5,84.5C 31.9429,87.6238 33.6095,89.9571 36.5,91.5C 37.8518,90.4756 39.1851,89.4756 40.5,88.5C 41.4345,89.5676 41.7678,90.901 41.5,92.5C 37.5,92.5 33.5,92.5 29.5,92.5C 29.5,88.8333 29.5,85.1667 29.5,81.5C 33.3714,81.185 37.0381,81.5184 40.5,82.5 Z"/></g>
<g><path style="opacity:1" fill="#bec8f7" d="M 52.5,90.5 C 69.1667,90.5 85.8333,90.5 102.5,90.5C 102.5,91.5 102.5,92.5 102.5,93.5C 85.8333,93.5 69.1667,93.5 52.5,93.5C 52.5,92.5 52.5,91.5 52.5,90.5 Z"/></g>
<g><path style="opacity:1" fill="#c4cef8" d="M 35.5,102.5 C 43.0797,101.247 46.0797,104.414 44.5,112C 46.2445,119.08 43.5778,122.247 36.5,121.5C 32.827,120 29.4937,118 26.5,115.5C 26.3347,111.818 26.5014,108.152 27,104.5C 29.4815,102.686 32.3148,102.02 35.5,102.5 Z"/></g>
<g><path style="opacity:1" fill="#bec8f7" d="M 52.5,105.5 C 64.5,105.5 76.5,105.5 88.5,105.5C 88.5,106.5 88.5,107.5 88.5,108.5C 76.5,108.5 64.5,108.5 52.5,108.5C 52.5,107.5 52.5,106.5 52.5,105.5 Z"/></g>
<g><path style="opacity:1" fill="#ddeefe" d="M 35.5,106.5 C 37.1667,106.5 38.8333,106.5 40.5,106.5C 40.5,110.167 40.5,113.833 40.5,117.5C 38.8333,117.5 37.1667,117.5 35.5,117.5C 35.5,113.833 35.5,110.167 35.5,106.5 Z"/></g>
<g><path style="opacity:1" fill="#bec8f7" d="M 98.5,116.5 C 98.0269,117.906 97.0269,118.573 95.5,118.5C 81.1667,118.5 66.8333,118.5 52.5,118.5C 52.5,117.5 52.5,116.5 52.5,115.5C 68.0091,115.17 83.3424,115.504 98.5,116.5 Z"/></g>
</svg>
